<?xml version="1.0" encoding="utf-8"?>
<!-- Generator: Adobe Illustrator 22.1.0, SVG Export Plug-In . SVG Version: 6.00 Build 0)  -->
<svg version="1.1" id="Layer_1" xmlns="http://www.w3.org/2000/svg" xmlns:xlink="http://www.w3.org/1999/xlink" x="0px" y="0px"
	 viewBox="0 0 198.4 198.4" enable-background="new 0 0 198.4 198.4" xml:space="preserve">
<g>
	<path fill="#6490A8" d="M58.4,88.2c29.4,6,58.5,9.1,88.2,1.1c0.2,0.5,0.5,1.4,1,2.2c7,18,14.9,35.5,26.1,51.4
		c3.2,4.6,7,8.7,11,12.4c2.3,2.1,5.8,3.2,8.7,4.7c0.5,0.2,1.1,0.4,2.2,1c-1.8,1.4-3,2.8-4.5,3.5c-9.5,4.7-18.9,9.4-28.6,13.6
		c-15.1,6.5-30.6,11.9-46.5,15.9c-3.4,0.8-6.9,1.4-10.3,2.1c-2,0.4-3.3-0.6-4.6-1.8c-5-4.5-8.6-9.9-11.9-15.6
		c-8.3-14.5-14.3-30-19.1-46c-4.3-14.4-7.7-29.1-11.7-43.7C58.4,88.8,58.4,88.5,58.4,88.2"/>
	<path fill="#6490A8" d="M96,196.4c-6.5-1.7-12.7-3.4-19-5.1c-5.3-1.4-10.6-2.8-15.9-4.3c-1.1-0.3-2.3-1.4-2.7-2.3
		c-4.6-12.9-8.6-26-9.1-39.8c-0.1-1.8-0.4-3.5-0.7-5.9c-1.4,6.7-2.4,12.7-3.8,18.8c-1.7,7.3-3.8,14.4-7.4,21
		c-0.5,1.1-1.2,1.6-2.4,1.3c-10.6-2.9-21.1-5.7-32-8.6c0.4-0.5,0.6-0.8,1-1.1c16.8-13.3,28-30.7,35.6-50.7
		c3.7-9.8,7.8-19.3,11.8-28.9c0.3-0.7,0.7-1.4,1.6-2.7c0.7,3.5,1.4,6.4,2,9.2c4.2,19.7,9.8,39.1,17.2,57.9
		c2.9,7.2,5.8,14.4,9.5,21.2c3.7,6.9,8.1,13.6,13.9,19C95.6,195.7,95.7,195.9,96,196.4"/>
</g>
</svg>
