<?xml version="1.0" encoding="utf-8"?>
<!-- Generator: Adobe Illustrator 22.1.0, SVG Export Plug-In . SVG Version: 6.00 Build 0)  -->
<svg version="1.1" id="Capa_1" xmlns="http://www.w3.org/2000/svg" xmlns:xlink="http://www.w3.org/1999/xlink" x="0px" y="0px"
	 viewBox="0 0 512 512" style="enable-background:new 0 0 512 512;" xml:space="preserve">
<style type="text/css">
	.st0{fill:#006BC0;}
	.st1{fill:#0096DC;}
	.st2{fill:#FFFFFF;}
	.st3{fill:#222123;}
</style>
<g>
	<path class="st0" d="M442,111.6l-29.2,338.9c-43.3,33.6-97.7,53.6-156.8,53.6s-113.5-20-156.8-53.6L70,111.6H442z"/>
	<polygon class="st1" points="256,143.5 256,497.5 378.3,462.9 405.5,143.5 	"/>
	<polygon class="st2" points="364,281.9 275.9,281.9 368,235.1 372,187.9 140,187.9 144.1,236 237.2,236 147.8,280.6 152,329.9 
		152,329.9 311.4,329.9 306.2,388.5 256,402.1 203.8,387.5 202.4,350.9 153.8,350.9 159.9,423 256,450.2 352.1,423 364,281.9 	"/>
	<g>
		<polygon class="st3" points="165.4,59.4 165.4,25.9 213.4,25.9 213.4,7.8 147.9,7.8 147.9,77.5 213.4,77.5 213.4,59.4 		"/>
		<polygon class="st3" points="241.5,35.1 241.5,26.7 289.3,26.7 289.3,25.9 289.3,7.8 223.9,7.8 223.9,51 270.8,51 270.8,59.4 
			223.9,59.4 223.9,77.5 289.3,77.5 289.3,59.4 289.3,35.1 		"/>
		<polygon class="st3" points="316.3,35.1 316.3,26.7 364.1,26.7 364.1,25.9 364.1,7.8 298.6,7.8 298.6,51 345.5,51 345.5,59.4 
			298.6,59.4 298.6,77.5 364.1,77.5 364.1,59.4 364.1,35.1 		"/>
	</g>
</g>
</svg>
