<?xml version="1.0" encoding="utf-8"?>
<!-- Generator: Adobe Illustrator 22.1.0, SVG Export Plug-In . SVG Version: 6.00 Build 0)  -->
<svg version="1.1" id="Layer_1" xmlns="http://www.w3.org/2000/svg" xmlns:xlink="http://www.w3.org/1999/xlink" x="0px" y="0px"
	 viewBox="0 0 198.4 198.4" enable-background="new 0 0 198.4 198.4" xml:space="preserve">
<path fill="#6490A8" d="M170,195.2c-2.4,0-4.2,0-6.3,0c0-5,0-9.9,0-15.1c-6.2,0-12.1,0-18.7,0c0,4.8,0,9.6,0,14.4
	c-5.4,1.1-5.9,0.7-5.9-4c0-4,0-8.1,0-12.5c-27,0-53.4,0-80.1-0.1c0,5.8,0,11.3,0,17c-2.1,0-3.9,0-6.3,0c0-4.9,0-9.7,0-14.9
	c-6.3,0-12.1,0-18.3,0c0,5,0,9.7,0,14.9c-2.1,0-3.9,0-6.1,0c0-63.7,0.1-127.3,0.1-191.3c1.8,0,3.7,0,5.8,0c0,4.4,0,8.9,0,13.6
	c6.2,0,12,0,18.4,0c0-4.5,0-9,0-13.7c2.4,0,4.3,0,6.4,0c0,5.1,0,10,0,15.1c26.8,0,53.1,0,80.1,0.1c0-5,0-10,0-15.1
	c2.3,0,3.9,0,6.1,0c0,4.4,0,8.8,0,13.6c6.3,0,12.2,0,18.5,0c0-4.5,0-8.9,0-13.2c6.2-1.3,6.4-1.2,6.4,4.4c0,60.6-0.1,121.3-0.1,181.9
	C170,191.9,170,193.4,170,195.2 M139,164.5c0-19.9,0-39.4,0-59.1c-27,0-53.4,0-80.1-0.1c0,19.7,0,39.4,0,59.1
	C85.7,164.4,112.2,164.5,139,164.5 M138.8,91.4c0-19.9,0-39.5,0-58.9c-26.9,0-53.4,0-79.8-0.1c0,19.9,0,39.4,0,58.9
	C85.8,91.4,112.2,91.4,138.8,91.4 M145.3,106.4c0,7.3,0,14.1,0,21c6.2,0,12,0,17.8,0c0-7.3,0-14.1,0-21
	C157.2,106.4,151.5,106.4,145.3,106.4 M34.2,164.3c6.3,0,12.1,0,18,0c0-7.3,0-14.1,0-21c-6.2,0-12,0-18,0
	C34.2,150.4,34.2,157.2,34.2,164.3 M145.3,143.1c0,7.3,0,14.3,0,21.3c6.2,0,12,0,18,0c0-7.3,0-14.3,0-21.3
	C157.2,143.1,151.5,143.1,145.3,143.1 M34.3,90.6c6.3,0,12.1,0,18,0c0-7.1,0-13.9,0-21c-6.1,0-11.9,0-18,0
	C34.3,76.7,34.3,83.4,34.3,90.6 M34.3,127.3c6.3,0,12.1,0,17.8,0c0-7.1,0-14,0-21c-6.1,0-11.9,0-17.8,0
	C34.3,113.5,34.3,120.4,34.3,127.3 M145.5,90.6c6.2,0,12,0,18,0c0-7.1,0-14,0-20.9c-6.2,0-12,0-18,0
	C145.5,76.8,145.5,83.7,145.5,90.6 M163.4,33c-6.2,0-12,0-18,0c0,7.1,0,13.9,0,21c6.1,0,11.9,0,18,0C163.4,47.1,163.4,40.2,163.4,33
	 M34.4,53.8c6.1,0,12,0,18,0c0-7.1,0-14,0-20.9c-6.1,0-11.9,0-18,0C34.4,40,34.4,46.8,34.4,53.8"/>
</svg>
