<?xml version="1.0" encoding="utf-8"?>
<!-- Generator: Adobe Illustrator 22.1.0, SVG Export Plug-In . SVG Version: 6.00 Build 0)  -->
<svg version="1.1" id="Layer_1" xmlns="http://www.w3.org/2000/svg" xmlns:xlink="http://www.w3.org/1999/xlink" x="0px" y="0px"
	 viewBox="0 0 198.4 198.4" enable-background="new 0 0 198.4 198.4" xml:space="preserve">
<g>
	<path fill="#6490A8" d="M4.2,137.4c0-11,0-22.1,0-33.1c0-3.9,0-7.8,0-11.8c0-2.1,0.2-4.2,0.8-6.1c0.8-2.4,2.3-4.3,4.3-5.8
		c2.6-1.9,5.5-2.5,8.5-2.5c6.2,0,12.2,0.1,18.4-0.1c2.4-0.1,4.6-0.8,6.9-1.7c1.7-0.6,3.3-1.4,4.7-2.5c1.7-1.3,3-2.8,4.4-4.4
		c1.8-2,3.4-4.2,5.1-6.2c0.9-1.2,1.9-2.6,2.8-3.8c2.5-3.1,5-6.2,8.9-7.8c2.6-1.1,5.1-1.8,8-1.8c14.7,0,29.3,0,44.1,0
		c4,0,7.7,1.2,11,3.4c1.5,1.1,2.6,2.5,3.9,3.9c1.8,2,3.4,4.2,5.1,6.2c1.7,2,3.2,4.3,5,6.2c1.7,1.9,3.6,3.6,5.6,5.1
		c2.3,1.7,5,2.6,8,2.8c1.5,0.1,3.2,0.4,4.7,0.5c5.5,0,10.9,0,16.4,0c2.5,0,4.9,0.4,7,1.7c1.7,1.1,3.1,2.3,4.2,4
		c1.5,2.6,2.1,5.3,2.1,8.4c0,30.4,0,60.7,0,91.1c0,3-0.6,5.7-2.3,8.1c-1.2,1.8-2.7,3.1-4.7,4c-2,1.1-4,1.2-6.2,1.2
		c-26.4,0-52.7,0-79,0c-27.7,0-55.5,0-83.1,0c-1.2,0-2.4,0-3.6-0.1c-3.2-0.4-5.8-1.9-7.8-4.3c-2.3-2.6-3.1-5.7-3.1-9.1
		C4.2,167.9,4.2,152.7,4.2,137.4 M99.1,91.1c-24.5,0.1-44.3,19.7-44.4,44.2c-0.1,13.9,5.5,25.3,15.9,34.2
		c8.1,6.9,17.8,10.4,28.5,10.3c13.7-0.1,25.2-5.5,34-15.9c6.9-8.1,10.3-17.7,10.3-28.4C143.5,111.2,123.7,91.3,99.1,91.1 M99.1,73.8
		c9.5,0,19,0,28.5,0c0.4,0,0.8,0,1.2,0c1.7-0.2,3-2.5,2-4c-1.2-1.9-2.6-3.7-3.9-5.5c-2.4-3.4-5.8-4.9-9.7-5
		c-11.4-0.1-22.8-0.1-34.3,0c-1.9,0-3.8,0.4-5.7,0.7c-2.5,0.5-4.3,2.1-5.7,4c-1.4,1.8-2.6,3.7-3.9,5.6c-0.1,0.2-0.2,0.5-0.4,0.7
		c-0.5,1.5,1.2,3.4,3.1,3.4C79.9,73.8,89.5,73.8,99.1,73.8 M167.3,91.8c-3.2,0-6.4,0.1-9.6,0c-2.3-0.1-3.7,1.5-3.7,3.7
		c0,2.5,0.1,5.1,0,7.6c-0.1,1.8,1.9,3.9,3.8,3.8c6.3-0.1,12.6-0.1,18.9,0c1.8,0,3.9-1.7,3.8-3.8c-0.1-2.6-0.1-5.2,0-7.7
		c0.1-2.3-1.5-3.7-3.7-3.6C173.7,91.8,170.5,91.8,167.3,91.8 M26.8,94.4c-3.9,0-6.5,2.8-6.6,6.4c-0.1,3.2,2.6,6.6,6.5,6.6
		c4.2,0,6.6-3.1,6.8-6.5C33.4,97.5,30.6,94.3,26.8,94.4"/>
	<path fill="#6490A8" d="M18,73.6c0-2.1,0-4,0-6.1c0-1.1,1.8-2.8,3-2.8c3.9,0,7.8,0,11.6,0c1.4,0,2.6,1.2,2.7,2.6c0.1,2,0,4.2,0,6.3
		H18z"/>
	<path fill="#6490A8" d="M97.9,166.9c-17-0.5-31.1-15.1-30.2-33.1c0.9-16.9,15.2-30.4,32.7-29.7c17,0.7,31,14.8,30,33.4
		C129.6,153.9,115.2,167.7,97.9,166.9"/>
</g>
</svg>
