<?xml version="1.0" encoding="utf-8"?>
<!-- Generator: Adobe Illustrator 22.1.0, SVG Export Plug-In . SVG Version: 6.00 Build 0)  -->
<svg version="1.1" id="Layer_1" xmlns="http://www.w3.org/2000/svg" xmlns:xlink="http://www.w3.org/1999/xlink" x="0px" y="0px"
	 viewBox="0 0 198.4 198.4" enable-background="new 0 0 198.4 198.4" xml:space="preserve">
<g>
	<path fill="#6490A8" d="M97.3,196.4c-4.9-0.7-9.9-1.3-14.7-2.1c-1.4-0.2-2.9-0.5-4-1.4c-1.5-1.3-2.7-3-4-4.6
		c1.5-1.1,2.8-2.7,4.4-3.1c9.1-2.2,18.3-3.7,27.3-6.1c8.5-2.2,15.9-6.1,20.7-14.3c6.3-10.7,2.1-21.5-6.6-27.3
		c-6.6-4.3-13.9-7.7-20.7-11.6c-2.9-1.7-6-3.5-8.5-5.9c-1.6-1.6-2.8-4.1-3.1-6.4c-0.7-3.9,2-6.8,5.7-6.2c5,0.9,9.9,2.3,14.6,4
		c7.3,2.5,14.3,5.5,21.6,8.2c12.9,4.7,23.9,1.2,32.9-8.3c6-6.5,10.7-14.1,16.3-21c2-2.4,4.3-4.8,7-6.2c3.4-1.8,5.6-0.4,6.6,3.3
		c2.3,7.9,1.8,15.9,0.8,23.9c-2.2,16.7-7.5,32.2-17.7,45.7c-8.2,10.9-18.7,19.4-30.7,26C130.3,191.4,114.4,195.7,97.3,196.4"/>
	<path fill="#6490A8" d="M99.7,5.9c39.4,1.6,68.9,20.7,86.5,57.7c1.4,3,2,6.8,2,10.3c-0.1,3.5-2.5,4.4-5.1,2.1
		c-4.1-3.6-7.6-7.8-11.5-11.6c-5.4-5.3-10.6-10.8-16.5-15.5c-8.8-6.9-23.4-7.7-31,1.2c-3.8,4.4-5.5,9.6-5.5,15.3
		c0,6.5,0.8,13,0.9,19.5c0,4.6-0.2,9.2-1,13.7c-0.5,3.4-4.1,5.6-7,5.4c-3.4-0.2-5.1-2.7-5.6-5.5c-1.6-8.6-2.8-17.2-4.3-25.8
		c-1-5.3-2.1-10.7-3.8-15.8c-3.8-10.5-12.4-15.7-22.6-18C67.2,37.1,59,36.7,51,35.7c-2.9-0.4-5.9-0.9-8.6-1.8
		c-4.7-1.7-5.5-5.6-2-9.1c5.7-5.6,13-8.9,20.5-11.8C72.8,8.4,85.4,6.3,99.7,5.9"/>
	<path fill="#6490A8" d="M45.2,105.4c5.9,0.3,10.8-2.2,15.5-5.3c6.4-4.4,12.7-9.2,19.1-13.5c2-1.3,4.2-2.2,6.5-2.8
		c3-0.9,5.6,0.1,7.5,2.7c1.8,2.5,1.2,5.2-0.7,7.2c-2.9,3.1-6.2,6.2-9.5,8.9c-5.2,4.3-10.7,8.2-15.9,12.5
		c-14.7,12.1-16.6,25.1-9.2,43.2c2.4,5.9,5.4,11.3,7.8,17.1c1.1,2.7,1.6,5.7,1.6,8.6c0,3.8-2.6,5.6-6,4.1c-6-2.7-12.1-5.5-17.3-9.4
		c-17-12.5-29.3-28.7-36-48.8c-4.4-12.7-5.4-25.8-4-39.2C6.3,74.2,11,58.8,20,45c2.1-3.1,4.7-6.1,7.4-8.5c1.3-1.1,3.9-1.6,5.4-1.1
		c0.9,0.3,1.5,3.5,1.1,5c-2,7.6-4.6,15-6.4,22.5c-1.5,6.6-3,13.4-3.1,20.3c-0.1,7.7,3.3,14.6,10,19.1c3,2,6.8,2.7,10.3,4.1
		C45,106.1,45.1,105.7,45.2,105.4"/>
	<path fill="#6490A8" d="M108.1,173c-9.8-0.1-17.6-8-17.6-17.8c0-9.5,8.1-17.6,17.8-17.6c9.5,0,17.8,8.1,17.8,17.7
		C126,165,117.9,173,108.1,173"/>
	<path fill="#6490A8" d="M28.6,84.1c0-9.6,7.9-17.7,17.6-17.8S63.8,74.1,64,83.8s-8.1,18-17.8,17.9C36.5,101.6,28.6,93.8,28.6,84.1"
		/>
	<path fill="#6490A8" d="M139.6,47c9.8,0,17.7,7.8,17.8,17.4c0.1,9.8-8.1,17.9-17.9,17.8c-9.6-0.1-17.7-8.2-17.6-17.8
		C122,54.8,129.9,47.1,139.6,47"/>
</g>
</svg>
