<?xml version="1.0" encoding="utf-8"?>
<!-- Generator: Adobe Illustrator 22.1.0, SVG Export Plug-In . SVG Version: 6.00 Build 0)  -->
<svg version="1.1" id="Layer_1" xmlns="http://www.w3.org/2000/svg" xmlns:xlink="http://www.w3.org/1999/xlink" x="0px" y="0px"
	 viewBox="0 0 198.4 198.4" enable-background="new 0 0 198.4 198.4" xml:space="preserve">
<g>
	<path fill="#6490A8" d="M123.7,59.8c1.9,1.8,3.7,3.5,5.6,5.3c5.3,5.3,10.5,10.5,15.8,15.8c2.1,2.1,4.3,4.2,6.3,6.2
		c0,0.1-0.1,0.3-0.1,0.4c-1.6,0.1-3.3,0.2-4.8,0.6c-0.8,0.1-1.6,0.3-2.2,0.9c-12.2,10-24.5,20-36.7,30.1
		c-20.6,17.2-41.4,34.3-62.3,51.5c-2.7,2.2-3.7,2.2-6.2-0.3c-1.9-1.9-3.8-3.8-5.9-5.9c-2.8,2.8-5.5,5.6-8.1,8.3
		c-2.7,2.7-5.4,5.4-8.1,8.1c-1.7,1.7-2.2,3.8-1.2,6.1c1,2.4,2.8,3.5,5.3,3.4c1.8-0.1,3.6-0.3,5.3-0.9c8-2.8,15.7-5.9,23.8-8.4
		c8-2.5,16.4-2.6,24.7-2.1c7.1,0.3,14,1.5,20.8,3.8c4.2,1.5,8.2,3.4,12.5,4.6c8.5,2.6,17.3,3.1,26.3,2.1c8.5-1,16.4-3.9,24.1-7.5
		c6.7-3,13.5-6.1,20.2-9c1.6-0.7,3-0.6,3.9,0.6c0.9,1,1,2.4,0.2,3.5c-0.3,0.6-0.9,1-1.6,1.3c-9.7,4.3-19.3,8.6-29.1,12.8
		c-6.8,2.8-14,4.3-21.3,4.7c-12.1,0.8-23.7-1.6-34.8-6.4c-5.5-2.4-11.3-3.6-17.3-4c-4.8-0.3-9.8-0.4-14.6-0.3
		c-7.2,0.2-14,1.9-20.6,4.5c-5.3,2.1-10.7,4.2-16,6.1c-4.3,1.6-8.6,1.6-12.7-0.9c-6.2-3.8-7.1-12.5-1.9-17.7
		c5-5,10.1-10.1,15.1-15.1c0.3-0.3,0.9-0.6,1.7-1c-2.6-2.5-4.7-4.6-6.8-6.6c-1.8-1.7-1.8-3-0.2-4.9c5.3-6.4,10.8-13,16.2-19.5
		c5-6.2,10.1-12.3,15.1-18.5c9.3-11.8,19-23.5,28.6-35.1c7.4-9,14.7-17.8,22-26.8c0.4-0.6,0.7-1.3,0.8-2.1c0.2-1.6,0.3-3.1,0.7-4.8
		c-0.1,0.8,6.7,7.2,7.4,7.9C116.7,53.4,120.2,56.6,123.7,59.8"/>
	<path fill="#6490A8" d="M124.9,12c13.5-11,36.4-10.7,51.7,4.7c15.9,15.9,15.3,38.9,4.8,51.8c-4.9-6.2-10.9-11.4-16.5-17.1
		c-11.9-12.1-24-24.1-36-36.1C127.7,14.1,126.2,13.1,124.9,12"/>
	<path fill="#6490A8" d="M115.9,43.2c-2.9-2.9-6.1-5.7-8.9-8.9c-2.9-3.4-2.5-8.5,0.7-11.7c1.1-1.1,2.4-2.2,3.5-3.4
		c3.6-3.9,9.7-3.3,12.8-0.1c4.7,4.7,9.4,9.4,14.1,14.1c8.6,8.6,17.2,17.2,25.8,25.8c3.5,3.5,7.1,7,10.5,10.5
		c3.4,3.5,3.4,9.2-0.1,12.6c-1,1-2.1,2.1-3.1,3.1c-4,3.9-9.2,4-13.2,0c-6.6-6.6-13.2-13.2-19.9-19.9c-2.7-2.7-5.4-5.4-8.1-8.1
		L115.9,43.2z"/>
</g>
</svg>
