<?xml version="1.0" encoding="utf-8"?>
<!-- Generator: Adobe Illustrator 22.1.0, SVG Export Plug-In . SVG Version: 6.00 Build 0)  -->
<svg version="1.1" id="Layer_1" xmlns="http://www.w3.org/2000/svg" xmlns:xlink="http://www.w3.org/1999/xlink" x="0px" y="0px"
	 viewBox="0 0 198.4 198.4" enable-background="new 0 0 198.4 198.4" xml:space="preserve">
<g>
	<path fill="#6490A8" d="M101.9,29.6c-0.3,2.8-0.5,5.8-0.6,8.6c-0.5,17.9,4.4,34.2,14.2,49.2c8.9,13.6,20.6,24.6,34.2,33.5
		c6.3,4.1,13,7.7,19.6,11.6c-1.4,0.9-3.1,2.2-4.8,3c-3.5,1.8-7.1,3.3-10.7,5c-0.6,0.3-1.5,0.3-2.1,0c-19.1-9.4-35.7-21.8-47.9-39.5
		c-8.6-12.2-13.3-26-13.9-41.2c-0.3-8.2,0.6-16.2,2.7-24.2c0.3-0.9,0.9-1.8,1.7-2.2c2.3-1.4,4.8-2.7,7.1-4.1
		C101.5,29.3,101.7,29.5,101.9,29.6"/>
	<path fill="#6490A8" d="M77.4,117.5c6.4-3.9,12.7-7.7,19.3-11.7c11.3,16.2,25.9,28.2,43,38.1c-12,1.4-22.9,0.1-33.6-4.1
		C94.6,135.3,85.1,128,77.4,117.5"/>
	<path fill="#6490A8" d="M154.1,80.5c4.1-0.4,8-1,11.8-1.2c9.4-0.4,18.4,1.8,27,5.5c1.3,0.5,1.8,1.2,1.7,2.6
		c-0.5,6.6-1.8,12.9-4.4,18.9C183.2,104.5,158.9,87.3,154.1,80.5"/>
	<path fill="#6490A8" d="M139.3,61.9c6.4-1.9,12.6-3,18.9-3.3c10.4-0.6,20.7,0.5,30.8,3.6c1.2,0.4,1.7,0.9,2.1,1.9
		c0.9,3.2,1.9,6.6,3,10.2c-3.3-1-6.1-1.9-8.9-2.7c-12.4-3.2-24.7-3.2-37,0.5c-1.2,0.4-1.7,0.1-2.3-0.8
		C143.7,68.2,141.6,65.3,139.3,61.9"/>
	<path fill="#6490A8" d="M134.7,52.1c-0.9-2.7-1.8-5.2-2.8-8.1c3.9-1,7.6-2.2,11.3-3c9.4-2.1,18.9-2.8,28.5-2.3c0.9,0,1.9,0.4,2.4,1
		c2.7,2.7,5.3,5.7,8,8.5c0.4,0.4,0.5,0.9,0.9,1.4C166.8,46.5,150.7,47.1,134.7,52.1"/>
	<path fill="#6490A8" d="M86.7,86.9c1.9,4.1,3.7,8.1,5.5,12c-6.3,3.9-12.7,7.7-19.2,11.6c-2.1-3.6-3.5-7.6-4.6-11.8
		c-0.1-0.3,0.1-0.8,0.4-1C74.3,93.5,80.2,89.9,86.7,86.9"/>
	<path fill="#6490A8" d="M81.6,65.9c0.9,4.4,1.7,8.2,2.4,12.2c0,0.3-0.3,0.8-0.5,0.9c-5.7,3.1-11.3,6.3-17.5,9.7
		c0.3-4.5,0.4-8.9,0.6-13.3c0-0.3,0.4-0.8,0.8-0.9C72.1,71.6,76.9,68.7,81.6,65.9"/>
	<path fill="#6490A8" d="M155.8,28.1c-8.4,1.7-17,3.5-26,5.2c-0.3-3.1-0.4-6.6-0.6-10.3C138.7,22.9,147.6,24.7,155.8,28.1"/>
	<path fill="#6490A8" d="M82.5,43.2c-0.4,4.4-0.6,8.5-1,12.7c0,0.5-0.5,1.2-0.9,1.4c-3.3,1.8-6.8,3.5-10.2,5.2
		C70.4,59.1,78.3,46.5,82.5,43.2"/>
	<path fill="#6490A8" d="M135.8,176.4c-11.8,0.1-24.2,1.5-35.5-1c1.4,2.8,2.7,5.5,4.1,8.4c10.9,1.8,22.3,1.8,33.3,0
		c1.9-0.3,4.2-1,4.6-3C143.1,177.8,138.8,176.4,135.8,176.4"/>
	<path fill="#6490A8" d="M182.3,120c1.3-1.9,2.6-3.9,4-5.9c-0.5-0.3-0.9-0.5-1.3-0.6c-12.5-6.4-23.9-14.2-34.1-23.9
		c-13.3-12.7-23.2-27.6-27.6-45.6c-1.5-6.6-2.2-13.3-3.2-20.3c-2.4,0.5-5.2,1.2-8,1.7c-1,0.3-1.4,0.6-1.5,1.7
		c-1.2,7.7-1.4,15.5-0.4,23.2c2.3,18.4,10.9,33.7,23.7,46.9c12,12.4,26.1,21.6,41.7,28.7c0.6,0.3,1.3,0.6,1.5,1.3
		c2.6,7.9,0.4,15.3-7,19.4c-8.4,4.8-18.3,3.9-27.6,4.6c-5.8,0.5-11.7,0.9-17.5,1.3c-10.6,0.6-21.2,1-31.8,1.7
		c-1.2,0.1-2.2,0.1-3.3,0.3c1.2,2.4,2.4,4.9,3.6,7.3c9-0.5,18.2-0.9,27.2-1.4c8.9-0.5,17.8-1.3,26.7-1.9c10.4-0.9,22.7-2.7,31.3-9
		c5.2-3.7,7.1-8.5,6.8-14.5C185.3,131.7,180.5,122.8,182.3,120"/>
	<path fill="#6490A8" d="M24.7,32.3c-4.2-1.2-7.3-1.9-10.4-2.8c-0.3,0.3-0.4,0.6-0.6,0.9c1,1.5,2.1,3.1,3.2,4.5
		c15.6,18.5,28.6,38.6,38.9,60.6c13.9,29.7,28.7,59.1,43.1,88.7c2.4,5,1.3,8.4-3.9,10.9c-4.9,2.4-8.2,1.3-10.7-3.6
		C58.2,138.1,32.1,84.6,6.1,31c-1-2.2-2.6-4.6-2.3-6.8c0.3-2.7,1.5-6.3,3.6-7.7c1.8-1.3,6.1-1,8,0.3C20.1,20.2,22.5,25.6,24.7,32.3"
		/>
</g>
</svg>
