<?xml version="1.0" encoding="utf-8"?>
<!-- Generator: Adobe Illustrator 22.1.0, SVG Export Plug-In . SVG Version: 6.00 Build 0)  -->
<svg version="1.1" id="Layer_1" xmlns="http://www.w3.org/2000/svg" xmlns:xlink="http://www.w3.org/1999/xlink" x="0px" y="0px"
	 viewBox="0 0 146 146" style="enable-background:new 0 0 146 146;" xml:space="preserve">
<style type="text/css">
	.st0{clip-path:url(#SVGID_2_);}
	.st1{opacity:0.7;}
	.st2{fill:#406F81;}
	.st3{fill:#FFFFFF;}
</style>
<g>
	<defs>
		<rect id="SVGID_1_" y="0" width="146" height="146"/>
	</defs>
	<clipPath id="SVGID_2_">
		<use xlink:href="#SVGID_1_"  style="overflow:visible;"/>
	</clipPath>
	<g id="Symbol_4_5" class="st0">
		<g id="Gruppe_49" transform="translate(-104 -1084)" class="st1">
			<circle id="Ellipse_1" class="st2" cx="177" cy="1157" r="73"/>
		</g>
		<g id="Gruppe_55" transform="translate(-3516.014 -2367.962)">
			<path id="Differenzmenge_2" class="st3" d="M3620.8,2438.1c-0.7,0-1.4,0-2.2-0.1v-8.5c0-2.8-2.3-5.1-5.1-5.1h-9.9
				c-0.2-0.9-0.3-1.8-0.4-2.8v-2.1c0.5-8.9,7.6-16,16.5-16.5h2.1c9.7,0.6,17.1,8.9,16.5,18.6
				C3637.8,2430.8,3630.1,2438.1,3620.8,2438.1L3620.8,2438.1z M3620.8,2409c-0.7,0-1.2,0.5-1.2,1.2v12.4c0,0,0,0.1,0,0.1
				c0,0,0,0.1,0,0.1c0,0,0,0.1,0,0.1c0,0,0,0.1,0,0.1c0,0,0,0,0,0c0,0,0,0,0,0l0,0c0,0.1,0.1,0.1,0.1,0.2v0c0,0.1,0.1,0.1,0.1,0.2
				l0,0l0,0c0,0,0,0,0.1,0.1c0,0,0,0,0.1,0.1c0,0,0,0,0,0c0,0,0,0,0,0c0.1,0,0.1,0.1,0.2,0.1c0,0,0,0,0,0s0,0,0,0c0,0,0.1,0,0.1,0
				l0,0c0,0,0,0,0,0c0,0,0,0,0,0c0,0,0.1,0,0.1,0c0,0,0.1,0,0.1,0h0c0,0,0.1,0,0.1,0c0,0,0.1,0,0.1,0c0,0,0,0,0,0c0,0,0,0,0,0
				c0.1,0,0.1,0,0.2-0.1c0,0,0,0,0,0l6.7-3.2c0.6-0.3,0.9-1,0.6-1.6c0,0,0,0,0,0c-0.2-0.4-0.6-0.7-1.1-0.7c-0.2,0-0.4,0-0.5,0.1
				l-5,2.4v-10.5C3622,2409.6,3621.4,2409,3620.8,2409C3620.8,2409,3620.8,2409,3620.8,2409z"/>
			<g id="Gruppe_54" transform="translate(3548.014 2413.656)">
				<path id="Pfad_2" class="st3" d="M26.3,64.3h15.3V13.5H26.3V64.3z"/>
				<path id="Pfad_3" class="st3" d="M62.7,13.5H46.6v50.8h16.1c2.8,0,5.1-2.3,5.1-5.1V18.5C67.8,15.7,65.5,13.5,62.7,13.5"/>
				<path id="Pfad_4" class="st3" d="M5.1,13.5c-2.8,0-5.1,2.3-5.1,5.1v40.7c0,2.8,2.3,5.1,5.1,5.1h16.1V13.5H5.1z"/>
				<path id="Pfad_5" class="st3" d="M46.6,13.5h-5.1V8c0-0.8-2.7-2.9-7.6-2.9S26.3,7.2,26.3,8v5.5h-5.1V8c0-4.6,5.5-8,12.7-8
					s12.7,3.4,12.7,8L46.6,13.5z"/>
			</g>
		</g>
	</g>
</g>
</svg>
