<?xml version="1.0" encoding="utf-8"?>
<!-- Generator: Adobe Illustrator 22.1.0, SVG Export Plug-In . SVG Version: 6.00 Build 0)  -->
<svg version="1.1" id="Layer_1" xmlns="http://www.w3.org/2000/svg" xmlns:xlink="http://www.w3.org/1999/xlink" x="0px" y="0px"
	 viewBox="0 0 198.4 198.4" enable-background="new 0 0 198.4 198.4" xml:space="preserve">
<g>
	<path fill="#6490A8" d="M189.2,159.7c-2.6-2.2-4.4-3.5-5.8-4.9c-14.6-16.7-33.7-22.4-54.9-23.1c-3.9-0.1-7.8,2.3-11.9,2.9
		c-1.8,0.2-4-0.9-6-1.5c-0.8-0.2-1.7-0.6-2.5-0.5c-32.5,3.9-63.3,13.8-93.6,25.5c-5.6,2.2-6.2,1.8-6.2-4.4c0-12.7,0.3-25.4-0.2-38.1
		c-0.2-5.9,1.6-9.8,6.3-12.8c1.7-1,3.5-2.3,4.7-3.8c1.3-1.5,2.1-3.3,3.1-5.1c-0.3-0.3-0.7-0.6-1-0.9c-1.2,0.6-2.3,1-2.3,1
		c1.2-4,2.4-8.7,3.8-13.3c-0.6-0.2-1.2-0.6-1.7-0.8c-1.7,1.3-3.3,2.5-5.2,3.8c-0.1-0.5-0.3-0.8-0.2-0.9c5.5-3.9,6.4-9.3,6.2-15.8
		c-0.3-9.2-1.4-8.3,8.1-8.3c1.5,0,2.9,0,4.7,0c0.6,1.7,1,3.3,1.5,4.9c19.9-14.8,40.3-29.1,62.6-40.3c16.1-8.1,32.7-15.1,50.7-17.4
		c12.3-1.6,24.4-1.3,34.3,7.7c2.1,2,3.6,5.5,3.8,8.4c0.5,7.9,0.2,16,0.2,25.5c-11-12.8-24.7-16.1-39.5-14.5
		c-10.4,1.2-20.7,3.1-30.6,6.1c-22,6.6-42.1,17.1-61.5,29.2c-1.7,1-2.5,3.5-3,6c7.8-5.1,17.8-6.4,22.7-13.7
		c9.8-3.6,18.8-7.6,28.1-10.2c14.4-4.3,28.8-8.6,43.5-11.2c16.1-2.8,30.8,0.9,40.4,16c1.2,1.8,2.2,4.3,2.2,6.4
		c0.1,30.5,0.1,61,0,91.5C190,155.1,189.6,156.7,189.2,159.7 M172.5,58.4c5.1-0.8,5.3,2.3,5.3,6c-0.1,21.3-0.1,42.6,0,63.9
		c0,4-0.7,6.8-5.8,6.6c0.1,10.2,10.2,11.6,14.4,18c0.6-2.9,0.6-5.4,0.6-7.9c0-26.1-0.5-52.1,0.1-78.1c0.2-11.2-6.7-16-14.6-22.1
		L172.5,58.4L172.5,58.4z M151.1,41.6c-3.6,0.5-6.4,1.2-9.3,1.2c-4.7-0.1-5.8,2.1-5.6,6.4c0.2,12.9,0,25.8,0,38.6
		c0,13.6,0,27.2,0,41c3.5,0.6,6.4,1,10,1.6V59.1c2-0.3,3.5-0.7,5.1-1V41.6H151.1z M133,128.9v-84c-13.2,1.6-18.5,7-13.8,13.5
		c1.5,0.2,3.1,0.6,5.3,0.9v69C127.5,128.5,130,128.6,133,128.9 M75,135.2V67.5c-10.5,3.7-10.5,3.7-10.5,13.9c0,17.1,0,34.2,0.1,51.3
		c0,1.5,0.2,3.1,0.5,4.9C68.6,136.8,71.8,136,75,135.2 M159.4,59.1v75.1c3.2,1.5,6.2,2.9,10.4,4.7c-0.7-2.2-1.2-4.3-1.5-4.3
		c-5.2,0-4.1-3.9-4.1-6.7c-0.1-20.9,0-41.9-0.1-62.8c0-3.9,0-7.2,4.9-7.1c0.9-15.8-1.6-18.3-14.6-15.4v15.4
		C156.1,58.4,157.6,58.8,159.4,59.1 M11.2,156c2.3-0.8,3.5-1.2,4.6-1.6c10.2-3.8,10.2-3.8,10-15c0-1.6-0.2-4.4-0.8-4.5
		c-4.9-1.3-3.3-5.2-3.3-8.1c-0.1-8.3-0.1-16.6-0.1-24.9c-0.6-0.2-1.2-0.5-1.7-0.7c-2.9,3.3-8.1,6.4-8.3,9.9
		C10.6,125.9,11.2,140.6,11.2,156 M47,143.3c3.5-1,6.4-2.3,9.7-3c3.7-0.7,4.9-2.4,4.9-6.3c-0.2-18.5,0-37.1,0-55.7
		c0-1-0.2-2.1-0.5-3.1c-5.9,1.4-8.3,4.3-8.2,10.5c0.5,13.9-0.1,28,0.2,41.9c0.1,4.7-0.2,8.2-6.2,7.2V143.3z M106.6,59v69.7
		c4.9,1.3,4.1-2,4.1-4.4c0-20.1,0-40.4,0.1-60.5c0-2.2,1.7-4.3,2.6-6.4c0.5,0.1,0.9,0.2,1.4,0.5v-8.7c-4.9,3.5-11.9,2.2-15,9.2
		C102.7,58.6,104.3,58.8,106.6,59 M39.3,89.3c-0.7-0.1-1.4-0.3-2.1-0.5c-0.6,2-1.6,3.9-1.7,6c-0.1,10.8-0.2,21.6,0,32.5
		c0.1,4.7-0.2,8.4-6.3,7.6v14.5c4.3-1.4,8.1-2.6,11.7-4c2.5-0.9,4-9.7,1.7-10.2c-5.1-1.4-3.5-4.9-3.6-7.9
		C39.2,114.5,39.3,101.8,39.3,89.3 M92.9,58.8c-4.4,0-4.3,2.6-4.3,5.6c0,21.2,0,42.2,0,63.4c0,1.4,0.2,2.8,0.5,4
		c0.5,0.2,1,0.3,1.5,0.6c0.8-1.4,2.1-2.8,2.3-4.3c0.3-2.9,0-5.9,0-8.9C92.9,99.3,92.9,79,92.9,58.8 M53.6,63.6
		c8.1-5.2,15.5-10.2,23.1-14.8c7.8-4.7,15.9-9.2,24.1-13.2c7.8-3.9,15.9-7.1,23.9-10.7c-26,6.9-49.6,19-72.3,33
		C52.9,59.9,53.1,61.6,53.6,63.6"/>
	<path fill="#6490A8" d="M187.7,196.4c-19.7-28.1-48.4-32.6-78-34.1c-31.4-1.6-62.1,3.5-92.3,12.2C54,158.8,92,149.4,132.3,150.5
		c-39.5-6.3-78-1.2-116,10.1c-0.1-0.5-0.2-0.9-0.5-1.4c13.1-4.4,26-9.2,39.2-13.1c25.3-7.4,51.2-11.4,77.8-9.6
		c15.8,1.2,30.8,4.7,43.6,14.8c7.4,5.8,12.7,12.4,11.4,22.9C187,181.4,187.7,188.3,187.7,196.4"/>
</g>
</svg>
