<?xml version="1.0" encoding="utf-8"?>
<!-- Generator: Adobe Illustrator 22.1.0, SVG Export Plug-In . SVG Version: 6.00 Build 0)  -->
<svg version="1.1" id="Capa_1" xmlns="http://www.w3.org/2000/svg" xmlns:xlink="http://www.w3.org/1999/xlink" x="0px" y="0px"
	 viewBox="0 0 512 512" style="enable-background:new 0 0 512 512;" xml:space="preserve">
<style type="text/css">
	.st0{fill:#0097A7;}
	.st1{fill:#00838F;}
	.st2{fill:#33BDCD;}
	.st3{fill:#80D5E0;}
</style>
<g>
	<path class="st0" d="M376,197.4V436h-10l-20-20V245.1L376,197.4z"/>
	<path class="st1" d="M446,86c0,0-20,250-70,350h-10c0,0-1.2-100-15-175l-5-15.9l30-47.7L446,86z M136,246h20v10l10,160
		c0,0-20,20-80,20c-10,0-20,0-20,0L136,246z"/>
	<path class="st0" d="M366,436c0,0,62.5-176.3,80-350v350H366z M66,86v350l90-180v-10V86H66z"/>
	<path class="st2" d="M296,366L446,86H331L216,366h2.5H296z"/>
	<path class="st3" d="M66,86l115-10l115,290h-80l-60-110L66,86z"/>
</g>
</svg>
