<?xml version="1.0" encoding="utf-8"?>
<!-- Generator: Adobe Illustrator 22.1.0, SVG Export Plug-In . SVG Version: 6.00 Build 0)  -->
<svg version="1.1" id="Layer_1" xmlns="http://www.w3.org/2000/svg" xmlns:xlink="http://www.w3.org/1999/xlink" x="0px" y="0px"
	 viewBox="0 0 198.4 198.4" enable-background="new 0 0 198.4 198.4" xml:space="preserve">
<g>
	<path fill="#6490A8" d="M29.7,85.7c-1.5-0.8-3-1.7-4.5-2.5c-3.7-2-7.5-3.5-11.4-4.8c-0.4-0.1-0.5-0.3-0.5-0.7
		c0.1-7.1,1.4-14.1,3.7-20.8c3.6-10.8,9.1-20.6,16.7-29C43.9,16.4,56.6,9,71.6,5.7C78,4.4,84.5,3.9,91,4c3.3,0.1,6.7,0.1,10,0.3
		c9.6,0.5,19,2.1,28.1,5.4c7.4,2.8,14.2,6.7,20.5,11.5c4.4,3.4,8.6,7.1,12.7,11c0.2,0.2,0.3,0.6,0.4,0.9c0.5,3.6,1.1,7.2,1.4,10.8
		c0.5,4.7,0.6,9.4,0.3,14.1c-0.3,4.3-0.8,8.6-1.9,12.9c0,0.1,0,0.2,0,0.3c1.1,0.1,2.2,0.1,3.2,0.3c3.7,0.4,7,2,10,4.3
		c4.1,3.3,6.7,7.6,8.2,12.6c1.2,4.2,1.6,8.4,1.1,12.9c-0.5,4.4-1.9,8.5-4.2,12.3c-1.6,2.6-3.8,4.7-6.4,6.5c-0.3,0.2-0.4,0.4-0.4,0.8
		c0.2,5.8-0.2,11.4-2.4,16.9c-0.8,2.2-2,4.1-3.7,5.6c-0.5,0.4-0.7,0.9-0.9,1.5c-1.3,5.8-3.5,11.3-6.7,16.4
		c-2.6,4.2-5.8,7.8-10.1,10.5c-3.2,2-6.6,3.1-10.4,3c-4.1,0-7.8-1.4-11.2-3.8c-4.1-2.9-7.1-6.7-9.7-10.9c-3.1-5.2-5-10.9-6.3-16.8
		c-1.2-5.6-1.7-11.2-1.5-17c0.2-9.2,1.9-18.1,5.7-26.5c2.3-4.9,5.1-9.5,9.3-13.1c3-2.7,6.3-4.6,10.2-5.5c2.9-0.6,5.7-0.5,8.5,0.3
		c0.4,0.1,0.6,0,0.8-0.3c1.5-2.6,3.7-4.6,6.3-6.4c0.1-0.1,0.3-0.2,0.4-0.3c-0.6-1.5-1.3-3.1-2-4.5c-2.8-6.3-5.5-12.6-8.3-18.7
		c-2.9-6.2-6.2-12-10.2-17.6c-3.1-4.1-6.5-7.8-10.7-10.8c-4-2.8-8.3-4.7-13.2-5.5c-5-0.8-9.9-0.3-14.8,1c-5.6,1.5-10.6,4.1-15.3,7.4
		C65,34.6,55.3,46,48.3,59.9c-1.7,3.6-3.2,7.3-3.9,11.2c-0.2,0.8-0.3,1.7-0.4,2.6c0,0.2,0,0.4,0.1,0.6c2,5.9,4.8,11.3,8,16.6
		c3.7,6.1,7.8,11.8,11.9,17.6c0.1,0.1,0.3,0.3,0.4,0.3c5.8,2.4,10.3,6.2,14,11.1c4.3,5.6,7.1,11.9,9.1,18.6c1.1,4,1.9,8,2.3,12.2
		c0.4,4.1,0.4,8.1,0.2,12.2c-0.7,9.8-3.1,19-8,27.7c-1.2,2.2-1.2,2.2-3.5,3.2c-4.3,2-9,2.8-13.7,2.5c-5.7-0.4-10.7-2.5-15.2-5.8
		c-5.4-3.9-9.3-9-12.2-14.8c-2.7-5.2-4.4-10.9-5.4-16.8c-0.6-4.1-0.8-8.2-0.7-12.3c0.1-2.9,0.5-5.8,1-8.6c0-0.2,0-0.5-0.1-0.7
		c-4-6.8-6.9-14-8.8-21.6c-1.3-5.1-2.2-10.3-1.9-15.5c0.2-3.3,0.7-6.4,2.4-9.3c1.2-2.3,3.1-3.9,5.4-4.9c0.1,0,0.1-0.1,0.2-0.1
		C29.6,85.9,29.6,85.8,29.7,85.7 M148.3,133.7c0-4.7-0.4-9.4-1.3-14.1c-0.8-4.2-2-8.3-3.9-12.2c-0.9-2-2.1-3.8-3.7-5.4
		c-1.1-1-2.4-1.9-4-2c-1.9-0.2-3.4,0.5-4.8,1.6c-1.9,1.6-3,3.8-3.9,6.1c-2.1,5.4-3,10.9-3.2,16.6c-0.3,6.5,0.2,13,1.6,19.3
		c0.9,4.2,2.3,8.2,4.4,11.9c1.1,2,2.4,3.7,4.3,4.8c2.3,1.3,4.4,1.2,6.6-0.3c0.6-0.5,1.2-1,1.7-1.6c1.4-1.6,2.3-3.7,3-5.7
		C147.5,146.7,148.3,140.3,148.3,133.7 M49.1,108.8c-0.3-0.6-0.5-1.1-0.8-1.6c-2.6-5.2-5.7-10.1-9.7-14.3c-1.1-1.1-2.5-2-4-2.4
		c-2.3-0.6-3.8,0-4.9,2.1c-0.1,0.3-0.3,0.5-0.4,0.8c-0.6,1.6-0.9,3.3-1.1,5c-0.3,3.2-0.1,6.4,0.3,9.5c0.5,4.1,1.3,8.2,2.7,12.1
		c0.8,2.5,1.7,4.8,3.3,6.9c0.4,0.6,1,1.1,1.6,1.9C38.8,121,42.3,113.8,49.1,108.8 M173.4,114.7c0.1,0,0.1-0.1,0.2-0.1
		c3.6-3.2,5.5-7.3,5.9-12c0.3-2.9,0.1-5.7-0.5-8.4c-0.9-4-2.5-7.6-5.2-10.7c-3.2-3.6-7.2-5.5-12.1-4.9c-4.3,0.5-8,2.6-11.4,5.2
		c0.4,0.3,0.7,0.5,1,0.7c2.2,1.5,4,3.3,5.8,5.4c0.1,0.1,0.3,0.3,0.5,0.3c2.4,0,4.2,1,6,2.5c2.4,2.1,4,4.5,5.4,7.2
		C171.2,104.5,172.6,109.5,173.4,114.7"/>
	<path fill="#6490A8" d="M61,103c0.8-0.1,1.6-0.3,2.5-0.4c8.3-1,15.6,1.6,22,6.9c5.5,4.5,9.4,10.2,12.1,16.7
		c2.1,4.8,3.4,9.9,4.1,15.1c0.6,4.3,0.7,8.6,0.4,13c-0.8,9.8-3.7,18.8-9.4,27c-0.8,1.1-1.7,2.3-2.6,3.4c0,0-0.1,0-0.1-0.1
		c0.2-0.7,0.5-1.3,0.7-2.1c1.5-4.3,2.6-8.7,3.2-13.3c0.6-4.5,0.9-9.1,0.8-13.7c-0.3-10.7-2.6-20.9-7.4-30.4c-3-5.8-6.8-10.9-11.8-15
		c-4.2-3.5-9.1-5.9-14.4-7.1c-0.1,0-0.1,0-0.2-0.1C61,103.1,61,103,61,103"/>
	<path fill="#6490A8" d="M144.1,132.9c-0.1,6-0.4,10.7-1.6,15.4c-0.6,2.3-1.4,4.5-3,6.4c-0.3,0.3-0.5,0.6-0.9,0.9
		c-1,0.8-2.1,0.9-3,0.1c-0.8-0.7-1.6-1.4-2.3-2.4c-1.6-2.2-2.5-4.6-3.2-7.2c-1.1-3.7-1.7-7.5-2.2-11.4c-0.3-3.3-0.4-6.7-0.3-10
		c0.2-4.7,0.8-9.4,2.5-13.8c0.5-1.2,1.1-2.5,1.9-3.7c0.3-0.5,0.7-0.9,1.1-1.3c1-0.9,2.1-1,3.2-0.2c0.7,0.5,1.3,1.1,1.9,1.9
		c1.6,2.5,2.7,5.2,3.6,8.1c1,3.5,1.7,7.1,2.1,10.7C143.9,129.1,144,131.5,144.1,132.9"/>
</g>
</svg>
