<?xml version="1.0" encoding="utf-8"?>
<!-- Generator: Adobe Illustrator 22.1.0, SVG Export Plug-In . SVG Version: 6.00 Build 0)  -->
<svg version="1.1" id="Layer_1" xmlns="http://www.w3.org/2000/svg" xmlns:xlink="http://www.w3.org/1999/xlink" x="0px" y="0px"
	 viewBox="0 0 198.4 198.4" enable-background="new 0 0 198.4 198.4" xml:space="preserve">
<g>
	<path fill="#6490A8" d="M62.1,121.2c-0.5-0.6-0.8-1.1-1.3-1.6c-3.7-4.8-3.6-9.9,0.5-14.5c6.2-7,12.3-13.9,18.5-20.9
		c3.7-3.9,7.4-7.8,10.8-11.9c5.5-6.7,15.3-4.2,18.1,2.6c2.8,6.5,6,12.9,8.8,19.4c0.5,1,1,1.5,2.2,1.5c5.2-0.1,10.3,0,15.5,0
		c3.9,0,6.3,1.8,6.8,5.2c0.5,3.2-1.5,5.6-5.4,6.7c0,3.8,0,7.6,0,11.4c0,0.3,0.1,0.6,0.2,0.9c1.6,2.5,3.2,4.9,4.9,7.6
		c10.8-5.1,21.5-5.4,32.2-0.5c8.3,3.9,14.4,10.2,17.9,18.6c7.2,17,0.7,36.5-15.3,45.7s-35.9,5.2-47.2-9.6
		c-10.9-14.5-10.1-36.1,5.9-49.8c-1.3-2-2.5-3.8-3.9-6c-3.3,5.3-6.5,10.2-9.8,15.2c-3.4,5.4-6.9,10.7-10.2,16.1
		c-0.6,0.9-0.9,2.1-0.9,3.1c-0.1,3.8,0,7.5,0,11.3c0,4.2-3.4,7.8-7.7,7.8c-4.2,0.1-7.8-3.3-8-7.6c-0.1-2.6,0-5.2,0-7.9h-18
		c-1.1,3.8-2.1,7.6-3.6,11c-6.3,14.2-20.9,22.9-36.5,21.2C20.2,194.5,7.5,182.9,4.3,167c-4.1-20.3,10-40.2,30.5-43.1
		c7.4-1,14.5,0,21,3.3c1.3,0.6,1.8,0.5,2.5-0.7C59.6,124.6,61,122.9,62.1,121.2 M139.9,138.4c-10.6,8.8-13.4,25.7-4.1,38.2
		c9.4,12.6,27.1,15.3,39.6,6.1c12.6-9.3,15.5-27,6.3-39.6c-9.4-13.1-26.1-14.2-35.3-9c0.1,0.2,0.3,0.6,0.5,0.8
		c4.9,7.5,9.9,14.8,14.7,22.3c1.4,2.2,0.9,4.5-1,5.7c-1.8,1.1-4.1,0.7-5.5-1.4c-0.8-1.1-1.5-2.3-2.3-3.4
		C148.6,151.6,144.3,145,139.9,138.4 M68.1,163.5c-0.8,0-1.7,0-2.5,0c-8.3,0-16.7,0-24.9,0c-1.7,0-3.2-0.5-4-2.2
		c-0.8-1.6-0.5-3.1,0.6-4.6c1.3-1.6,2.4-3.3,3.6-5.1c4-5.9,8.2-11.6,12.2-17.5c-8.7-5.1-22.3-4.4-31.5,3.8
		c-9.9,9-12.6,22.6-6.9,34.2c5.6,11.4,18.4,17.8,30.7,15.4C57.3,185.4,67.2,175,68.1,163.5 M76.2,155.5h18.7c0-7,0-14,0-20.9
		c0-0.5-0.6-1.1-1-1.3c-7.7-2.9-15.5-5.7-23.3-8.6c-0.5-0.1-1.3-0.1-1.4,0.2c-1.7,2.4-3.4,4.8-5.2,7.4
		C70.9,138.6,75,146.3,76.2,155.5 M128.8,116.4c0-2.6-0.1-4.9,0-7.4c0.1-1.4-0.5-1.8-1.8-1.8c-4.1,0.1-8.3,0-12.4,0
		c-2.8,0-4.6-1.3-5.7-3.8c-1.3-2.9-2.6-5.6-3.9-8.5c-0.8-1.6-1.5-3.2-2.3-5.1c-6.8,7.6-13.2,14.9-19.9,22.4c3.2,1.1,6.2,2.3,9.2,3.4
		c1,0.3,2.1,0.6,3.1,0.6c8.6,0,17.2,0,25.8,0C123.5,116.4,126.1,116.4,128.8,116.4 M47.9,155.5h20.3c-1.1-6.7-3.9-12.1-8.8-16.7
		C55.4,144.5,51.7,149.9,47.9,155.5 M110.3,142.9c0.2,0,0.5,0.1,0.7,0.1c3.9-6.1,7.8-12.2,11.8-18.5h-12.5V142.9z"/>
	<path fill="#6490A8" d="M131.5,61.2c0,7.2-6.1,13.3-13.4,13.3c-7.5,0-13.6-6.1-13.4-13.6c0-7.1,6.1-13.2,13.3-13.2
		C125.5,47.8,131.5,53.7,131.5,61.2"/>
</g>
</svg>
