<?xml version="1.0" encoding="utf-8"?>
<!-- Generator: Adobe Illustrator 22.1.0, SVG Export Plug-In . SVG Version: 6.00 Build 0)  -->
<svg version="1.1" id="Layer_1" xmlns="http://www.w3.org/2000/svg" xmlns:xlink="http://www.w3.org/1999/xlink" x="0px" y="0px"
	 viewBox="0 0 198.4 198.4" enable-background="new 0 0 198.4 198.4" xml:space="preserve">
<g>
	<path fill="#6490A8" d="M151.7,89.4v-6.6h6.4c0,0.8,0.1,1.5,0.1,2.3c-0.3,3.1-0.3,5.3,3.1,7.4c3.9,2.3,2.8,9-1.4,10.7
		c-1.9,0.8-2.4,1.8-2.4,3.7c-1.1,27.7-2.2,55.5-3.3,83.2c0,0.8,0.1,1.4-0.1,2c-0.1,0.6-0.6,1.1-1,1.5c-0.4-0.5-0.9-1-1-1.4
		c-0.1-0.6,0-1.4,0-2c0-28.1,0-56.4,0-84.4c0-2.2-0.5-3.1-2.8-3.6c-8.7-1.7-17.3-3.7-26.1-5.5c-2.7-0.6-4.6-1.8-6-4.3
		c-2.8-4.8-5.7-9.8-8.9-15.1c-0.4,1.4-0.6,2.5-0.9,3.6c-2.2,11.7-4.3,23.3-6.6,35c-0.1,0.8,0.4,2,1.1,2.4
		c6.1,4.1,12.5,7.8,18.6,12.1c2,1.4,3.9,3.8,4.7,6.1c4.8,14.4,9.5,29,14.3,43.5c1.8,5.7-0.8,11.1-6.1,13c-5.2,1.8-10.7-1-12.7-6.6
		c-4.2-12.5-8.1-24.8-12.5-37.3c-0.5-1.4-1.4-2.8-2.7-3.7c-6.6-4.7-13.2-9.3-19.9-13.9c-0.4-0.3-0.9-0.5-1.5-1
		c-0.9,4.6-1.7,9-2.3,13.5c-0.6,4.3-2.4,8-5,11.3c-7.6,9.5-15.4,18.8-23.2,28.1c-1.4,1.5-2.9,3.3-4.6,4.3c-1.8,1.1-4.2,2.2-6.1,1.8
		c-8.5-1.3-10.6-6.7-5.3-13.9c7.1-9.9,14.3-19.6,21.6-29.4c1.7-2.3,2.8-4.6,3.3-7.4c1.5-9.8,3.7-19.3,4.8-29.1
		c1.5-13.7,3.8-27.5,7-40.8c1.4-6.5,3.2-12.7,7.1-18.3c5.3-7.5,11.7-9.2,19.7-4.6c4.5,2.5,8.3,5.9,10.8,10.6
		c4.7,8.7,10,17.2,15,25.7c0.5,0.8,1.3,1.7,2,1.8C136.3,86.2,143.9,87.7,151.7,89.4"/>
	<path fill="#6490A8" d="M38.8,91.9c1-11.8,4.8-25.3,12.5-37.9c3.9-6.5,9.4-9.9,17.1-9.8c1.1,0,2,0.3,3.2,0.6c2.2,0.8,3.2,2,2.7,4.6
		c-3.8,19.9-7.4,39.8-11.1,59.8c-0.4,1.9-1,2.8-3.1,2.7c-2.7-0.3-5.5-0.1-8.1-0.6C42.4,109.9,38.4,104.6,38.8,91.9"/>
	<path fill="#6490A8" d="M100.7,41.3c-10.2,0-18.4-8.1-18.4-18.4c0-10.1,8.3-18.4,18.4-18.4c10,0,18.3,8.3,18.4,18.3
		C119.4,33,111.1,41.3,100.7,41.3"/>
</g>
</svg>
