<?xml version="1.0" encoding="utf-8"?>
<!-- Generator: Adobe Illustrator 22.1.0, SVG Export Plug-In . SVG Version: 6.00 Build 0)  -->
<svg version="1.1" id="Layer_1" xmlns="http://www.w3.org/2000/svg" xmlns:xlink="http://www.w3.org/1999/xlink" x="0px" y="0px"
	 viewBox="0 0 198.4 198.4" enable-background="new 0 0 198.4 198.4" xml:space="preserve">
<path fill="#6490A8" d="M52.1,196.4c-0.5-2.9-0.9-5.6-1.3-8.3c-0.7-4.5-1.3-9-2-13.4c-0.7-4.5-1.4-9-2.1-13.4
	c-0.7-4.6-1.4-9.1-2.1-13.7c-0.8-5-1.5-10.1-2.4-15.1c-0.2-1.4,0.3-2.5,0.8-3.6c4.1-9.5,8.2-19,12.3-28.5c3.3-7.5,6.4-14.9,9.6-22.5
	c3.5-8,6.9-16.1,10.3-24c1.9-4.4,3.9-8.8,5.7-13.3c2.9-6.8,5.7-13.5,8.7-20.3c3.9-8.8,10.6-13.8,20.4-14.7c5.4-0.5,10.3,1,15.2,3.3
	c5.2,2.4,10.5,4.5,15.9,6.9c7.2,3.2,12,8.4,14.3,16c1.9,6.3,0.8,12.2-1.8,18.1c-3.6,8.1-7,16.2-10.4,24.3c-1.9,4.5-4,9-5.9,13.6
	c-2.9,6.7-5.7,13.4-8.6,20.1c-1.9,4.5-3.9,9-5.8,13.5c-3.5,8.1-7,16.2-10.3,24.1c-1.8,4.4-3.7,8.7-5.7,13c-0.4,0.9-1.5,1.6-2.5,2.3
	c-3.7,2.6-7.4,5.1-11.2,7.7c-5.2,3.6-10.3,7.1-15.6,10.6c-5.2,3.6-10.4,7.3-15.8,10.8C58.8,191.8,55.5,194.1,52.1,196.4 M46.8,132.5
	c0.1,0,0.2,0.1,0.3,0.1c0,0.4,0,0.7,0,1.1c0.8,5.2,1.6,10.4,2.5,15.8c1,6.8,2,13.5,3.1,20.2c0.1,0.8,0.4,1.3,1.3,1.7
	c5.1,2.1,10.2,4.4,15.5,6.5c0.4,0.2,1.2,0,1.6-0.3c3.2-2.1,6.3-4.3,9.5-6.4c6.4-4.4,12.8-9,19.3-13.3c2.1-1.3,3.4-3.1,4.3-5.3
	c0.5-1.3,0.6-2.5,0.1-3.8c-2.6-6.7-11.6-9.6-17.1-5.1c-0.3,0.2-0.8,0.3-1.1,0.2c-0.2-0.1-0.3-0.6-0.4-0.9c-0.3-1.2-0.5-2.6-1-3.6
	c-3-5.6-11.1-8.3-16.6-3.8c-0.2,0.2-0.7,0.3-0.9,0.2c-0.3-0.2-0.5-0.6-0.6-0.9c-0.2-0.7-0.2-1.4-0.4-2c-1.5-4.5-4.9-6.9-9.4-7.7
	c-2.3-0.4-4.4,0.1-6.4,1c-1.6,0.8-1.8,2.5-2.5,3.8C47.3,130.6,47.1,131.6,46.8,132.5"/>
</svg>
