<?xml version="1.0" encoding="utf-8"?>
<!-- Generator: Adobe Illustrator 22.1.0, SVG Export Plug-In . SVG Version: 6.00 Build 0)  -->
<svg version="1.1" id="Layer_1" xmlns="http://www.w3.org/2000/svg" xmlns:xlink="http://www.w3.org/1999/xlink" x="0px" y="0px"
	 viewBox="0 0 198.4 198.4" enable-background="new 0 0 198.4 198.4" xml:space="preserve">
<g>
	<path fill="#6490A8" d="M22.1,148.1c-2.6-9-5.3-18.1-7.9-27.2c-2.8-10.3-5.7-20.6-8.3-30.8c-1-4-2-7.9-2.2-11.9
		c-0.4-8.5,3.6-15.7,9.7-21.4c4.2-4,9-7.3,13.6-10.8c9.7-7.2,19.3-14.4,29-21.5c12.1-9,25.9-13,41-12c16,1.1,31.9,2.2,47.8,3.5
		c8.3,0.6,15.7,3.5,21.8,9.4c3.2,3.2,5.3,7.2,6.6,11.5c2.4,7.4,4.6,14.9,6.8,22.3c1.9,6.1,3.7,12.3,5.7,18.3
		c2.4,7.8,4.6,15.7,7.2,23.4c3.3,10,2.6,19.9-1.1,29.6c-2.2,5.8-6.2,10.5-10.4,14.9c-11.9,12.5-23.8,24.9-35.8,37.4
		c-2.6,2.7-5.3,5.4-8.3,7.8c-8,6.1-17.1,7.1-26.7,5c-9-2.1-18.1-4.2-27.1-6.6c-11.1-2.8-22.3-5.4-33.3-8.8
		c-14-4.3-22.7-14.2-27.2-28c-0.4-1.2-0.7-2.6-1.1-3.8C21.8,148.1,22,148.1,22.1,148.1 M138.6,181.2c-0.7,0.2-1.4,0.5-2,0.7
		c-3.6,1.2-5.7,0.6-7.9-2.4c-0.9-1.1-1.7-2.4-2.2-3.7c-1.7-4.5-3.7-8.9-5.1-13.5c-4.1-13.9-8-27.6-11.9-41.6
		c-2.1-7.4-2.5-15.1-1.2-22.8c0.5-3.6,1.9-6.8,3.8-9.9c4.7-7.1,10.5-13.1,16.3-19.2c7.3-7.6,14.9-14.9,21.2-23.3
		c1.9-2.5,4-4.8,6.2-6.9c3.1-3,6.3-5.8,10.9-6.2c0.7,0,1-0.5,0.9-1.2c0-0.1,0-0.2-0.1-0.2c-1-3.2-7.2-7.9-10.8-8.2
		c1.5,3.3,0.4,5.9-1.9,8.5c-4.2,4.8-8.3,9.8-12.5,14.5c-8.8,10-17.7,19.7-27.5,28.7c-7.3,6.8-15.7,11.3-25.8,12.6
		c-5.2,0.6-10.3,0-15.5-0.9c-18.3-3.5-36.8-6.7-55.1-9.9c-0.4-0.1-0.7-0.1-1.5-0.1c0.4,0.2,0.4,0.2,0.5,0.4
		c9.5,2.8,19.1,5.7,28.6,8.4c10.2,3,20.3,5.7,30.3,8.8c8.3,2.6,15.4,7.2,20.7,14.2c3.8,5.2,6.2,11.1,8,17.3c2.8,9.8,5.4,19.7,8,29.5
		c2.1,7.7,4,15.4,6.1,23c1.5,5.6-0.7,10-6.2,11.9c-0.4,0.1-0.7,0.4-1.2,0.5C119.3,195,134.7,189.2,138.6,181.2 M86.8,52.5
		c2.6-0.5,4.8-2,6.7-4c3.8-4.2,2.5-9.4-3-11.3c-5.3-1.7-12.3,0.4-15.6,4.8c-3,3.8-1.7,8.7,3,10.4C80.8,53.7,83.7,53.7,86.8,52.5
		 M143.4,111.6c0.9,3.1,2.1,5,4.1,6.9c4.2,3.7,9.5,2.5,11-3c0.5-1.9,0.7-4.1,0.5-5.9c-0.5-4.3-2.5-7.9-6.3-10.3
		c-3.3-2-6.7-1-8.7,2.4C142.4,104.9,142.4,108.3,143.4,111.6 M133.6,157.8c0.7,2.4,2.2,5.1,5,7.1c3.8,2.6,8.2,1.4,9.8-3
		c2.2-5.6,0-13.2-5-16.6c-3.8-2.6-8.3-1.2-9.9,3.1C132.6,151.2,132.6,154.2,133.6,157.8 M168.4,61.2c-1.1-3.7-3.2-6.6-5.7-8
		c-3.7-2-7.7-0.6-9.2,3.2c-2.1,5.3-0.2,12.5,4.1,16.1c4.3,3.6,9.3,2,10.9-3.3C169.4,66.5,169.3,63.9,168.4,61.2 M88.2,114.1
		c-0.7-2.6-2.1-5-4.2-6.7c-4.1-3.6-9.2-2.1-10.8,3.2c-1.6,5.3,0.6,12,5.1,15.4c3.6,2.7,8.2,1.4,9.8-2.8
		C89.2,120,89.2,117,88.2,114.1 M68.8,133.1c-0.7-2.8-2.2-5.3-4.7-7.2c-3.8-2.8-8.4-1.5-10,3.1c-1.9,5.3,0,12,4.5,15.6
		c3.8,3.1,8.7,1.9,10.3-2.8C69.6,139,69.6,136.1,68.8,133.1 M101.6,169.5c-1.1-4-3.1-6.6-5.8-8c-3.2-1.7-6.7-0.7-8.4,2.5
		c-3,5.4-0.4,14.4,5,17.5c3.8,2.1,7.7,0.7,9.2-3.3C102.6,175.2,102.6,172.3,101.6,169.5 M36.4,101.2c-0.7-2.8-2.1-5.2-4.3-7.1
		c-4.5-3.6-9.3-2-10.8,3.5c-1.5,5.3,0.7,11.9,5.2,15.1c3.7,2.7,8.2,1.2,9.8-3C37.4,106.9,37.4,103.9,36.4,101.2 M35.4,156.2
		c1.2,4.2,3.3,7.1,6.3,8.5c3.3,1.6,6.7,0.5,8.4-2.8c2.7-5.6-0.1-14.4-5.6-17.2c-3.7-2-7.6-0.5-9,3.5
		C34.6,150.8,34.6,153.7,35.4,156.2"/>
</g>
</svg>
