<?xml version="1.0" encoding="utf-8"?>
<!-- Generator: Adobe Illustrator 22.1.0, SVG Export Plug-In . SVG Version: 6.00 Build 0)  -->
<svg version="1.1" id="Capa_1" xmlns="http://www.w3.org/2000/svg" xmlns:xlink="http://www.w3.org/1999/xlink" x="0px" y="0px"
	 viewBox="0 0 512 512" style="enable-background:new 0 0 512 512;" xml:space="preserve">
<style type="text/css">
	.st0{fill:#004284;}
	.st1{fill:#6399D4;}
	.st2{fill:#00579E;}
	.st3{fill:#F2F2F2;}
</style>
<g>
	<path class="st0" d="M24.3,145"/>
	<path class="st0" d="M464.5,152.7l24.3,198.7c0,20.3-10.9,39.1-28.4,49.3L285,502c-17.6,10.2-39.3,10.2-56.9,0l-140.3-81
		l-37.2-20.4c-17.6-10.2-26.4-28.8-26.4-49.1C24.2,351.4,464.5,151.4,464.5,152.7z"/>
	<path class="st1" d="M480.6,132.9L37,389c-4.9-7.1-13.7-16.7-13.8-22s0,0,0,0c-0.1-1.3-0.1-2.6-0.1-3.8V160.6
		c0-20.3,10.8-39.1,28.4-49.3L227,10c17.6-10.2,39.3-10.2,56.9,0l140.4,81l35.1,20.3C468.4,116.6,475.7,124.1,480.6,132.9z"/>
	<path class="st2" d="M487.8,160.6v202.6c0,1.3,0,2.6-0.1,3.8c0,0,0,0,0,0c-4,7.2-8.4,14.3-13.1,21.1l-218-125.8l224-129.3
		C485.3,141.3,487.8,150.8,487.8,160.6z"/>
	<g>
		<path class="st3" d="M323.7,300.9c-13.3,23.9-38.8,40.1-68.2,40.1c-43,0-77.9-34.9-77.9-77.9s34.9-77.9,77.9-77.9
			c28.8,0,53.9,15.6,67.4,38.8l68.9-39.8c-27.2-47-78.1-78.5-136.3-78.5c-87,0-157.5,70.5-157.5,157.5c0,87,70.5,157.5,157.5,157.5
			c58.8,0,110-32.2,137.1-79.9L323.7,300.9z"/>
		<polygon class="st3" points="410.1,251.8 392.2,251.8 392.2,233.9 374.8,233.9 374.8,251.8 356.9,251.8 356.9,269.2 374.8,269.2 
			374.8,287.1 392.2,287.1 392.2,269.2 410.1,269.2 		"/>
		<polygon class="st3" points="475.2,251.8 457.3,251.8 457.3,233.9 439.9,233.9 439.9,251.8 422,251.8 422,269.2 439.9,269.2 
			439.9,287.1 457.3,287.1 457.3,269.2 475.2,269.2 		"/>
	</g>
</g>
</svg>
