<?xml version="1.0" encoding="utf-8"?>
<!-- Generator: Adobe Illustrator 22.1.0, SVG Export Plug-In . SVG Version: 6.00 Build 0)  -->
<svg version="1.1" id="Layer_1" xmlns="http://www.w3.org/2000/svg" xmlns:xlink="http://www.w3.org/1999/xlink" x="0px" y="0px"
	 viewBox="0 0 198.4 198.4" enable-background="new 0 0 198.4 198.4" xml:space="preserve">
<g>
	<path fill="#6490A8" d="M27.3,78.1v-2.6c2.4-1.3,5-2.2,7.7-2.6c2.2-0.3,4.4-0.4,6.7-0.3c3.6,0.1,7,0.8,10.3,2
		c0.2,0.1,0.6,0.4,0.6,0.8c0.1,0.6,0,1.2,0,1.9c0.3,0,0.6,0.1,0.8,0c1-0.1,1.8,0.2,2.6,0.8c0.3,0.3,0.9,0.6,1.4,0.6
		c4.3,0,8.8,0,13.3,0v1.1c0,9.7,0,19.3,0,29c0,3.9,2.6,6.5,6.4,6.5c14.6,0,29.4,0,44.1,0c4,0,6.5-2.6,6.5-6.7c0-9.5,0-19.2,0-28.7
		v-1.2c0.8,0,1.4,0,2.1,0c3.9,0,7.7,0,11.5,0c0.6,0,1,0,1.3-0.6c0.4-0.7,1.1-0.9,1.9-0.8c0.3,0,0.8,0,1.3,0c0-0.7-0.1-1.2,0-1.8
		c0.1-0.3,0.3-0.8,0.7-0.9c2.8-1,5.7-1.7,8.7-1.9c1.2-0.1,2.6-0.2,3.8-0.2c4.2,0,8.3,1,12.2,2.9v2.4c0.1,0.1,0.1,0.2,0.2,0.1
		c1.6-0.3,2.3,0.7,3,1.9c2.3,3.9,4.9,7.5,7.1,11.5c1.3,2.3,2.1,4.9,3,7.4c2,5.8,3.3,11.8,4.5,17.9c1,4.8,2.1,9.7,3,14.4
		c0.7,3.4,1.2,6.9,1.8,10.3c0.4,3.2,1,6.4,1.3,9.7c0.2,2.1,0.3,4.1,0.4,6.2c0.1,3.9,0.3,7.9,0.1,11.8c-0.2,5.2-0.7,10.3-2.6,15.3
		c-2.3,6-6.7,9.5-12.8,11.1c-1.7,0.4-3.3,0.7-5.1,0.8c-3.8,0.2-7-1.2-10-3.3c-4.4-3.2-7.5-7.5-9.4-12.5c-2.8-7.2-5.5-14.5-8.3-21.7
		c-0.7-1.7-1-3.4-1.4-5.2c0-0.2-0.2-0.3-0.3-0.4c-0.8-0.4-1.4-1-2.1-1.3c-1.7,1.1-3.1,2.2-4.7,3.1c-3.2,1.9-6.8,2.4-10.4,2.1
		c-3.8-0.4-7.1-2.1-10.1-4.3c-0.6-0.4-1.2-1-1.8-1.3c-0.2-0.2-0.6-0.3-0.9-0.3c-11,0-22,0-33,0c-0.7,0-1.3,0.7-2,1.1
		c-2.9,2.2-6,4-9.7,4.7c-4.2,0.8-8.3,0.1-12.1-2.1c-1.4-0.9-2.8-1.9-4.2-2.9c-0.7,0.4-1.4,0.9-2.2,1.4c-0.1,0.1-0.2,0.2-0.2,0.3
		c-1,3.1-1.9,6.2-3,9.2c-2.2,6.1-4.5,12.2-7,18.2s-6.2,10.9-12.1,13.9c-4.3,2.2-8.7,2-13.2,0.7c-7.2-2.1-11.2-7.1-13-14.2
		c-0.8-3.3-1.3-6.7-1.3-10c0-3.2-0.2-6.5-0.1-9.8c0.1-3.7,0.4-7.2,0.8-10.9c0.3-3.1,0.7-6.3,1.1-9.4c0.4-3,1-6,1.6-9
		c0.8-3.9,1.6-7.9,2.4-11.8c2-9.3,3.8-18.6,7.7-27.4c1-2.2,2.4-4.3,3.7-6.4c1.6-2.4,3.1-4.9,4.5-7.3c0.4-0.8,0.9-1.2,1.9-1
		C26.7,78.1,27,78.1,27.3,78.1 M80.5,137.9c0-6.8-5.4-12.2-12.2-12.2c-6.7,0-12.2,5.4-12.2,12.1c0,6.8,5.4,12.2,12.1,12.3
		C74.9,150.2,80.5,144.7,80.5,137.9 M130.3,150.2c6.8,0,12.2-5.4,12.2-12.2c0-6.7-5.4-12.1-12.2-12.2c-6.8,0-12.2,5.4-12.2,12.2
		C118.1,144.6,123.6,150.2,130.3,150.2 M166.5,94c0-3.3-2.8-6.1-6.1-6.1s-6.1,2.8-6.1,6c0,3.3,2.7,6.1,6.1,6.2
		C163.7,100,166.5,97.3,166.5,94 M146.6,113.8c3.3,0,6.1-2.7,6.2-6.1c0-3.3-2.7-6.1-6.1-6.1c-3.3,0-6.1,2.7-6.1,6
		C140.6,111,143.3,113.8,146.6,113.8 M180.2,107.8c0-3.3-2.7-6.1-6-6.2c-3.3,0-6.1,2.7-6.1,6c0,3.4,2.7,6.2,6,6.2
		C177.4,113.8,180.2,111.1,180.2,107.8 M166.5,121.4c0-3.3-2.8-6.1-6.1-6.1s-6.1,2.7-6.1,6c0,3.3,2.7,6.2,6,6.2
		C163.7,127.5,166.5,124.7,166.5,121.4 M38.7,92.2c-1.1,0-2.2,0-3.3,0c-1.2,0-1.7,0.6-1.8,1.7c0,1.4,0.1,3,0,4.4
		c-0.2,1.9,0.7,3.2,1.8,4.4c0.3,0.3,0.7,0.6,0.9,1c1,1.4,3.7,1.3,4.7,0c0.3-0.4,0.8-0.8,1.1-1.2c0.6-0.9,1.4-1.8,1.6-2.8
		c0.2-2.1,0.1-4.2,0.1-6.3c0-0.9-0.7-1.4-1.6-1.4C41,92.2,39.9,92.2,38.7,92.2 M22.6,108.1c0,1.1,0,2.3,0,3.4s0.6,1.6,1.7,1.6
		c1.6,0,3.1-0.1,4.5,0c1.8,0.2,3.1-0.6,4.4-1.8c0.3-0.3,0.6-0.7,1-0.9c1.4-1.1,1.4-3.7,0-4.8c-0.4-0.3-0.7-0.8-1.1-1
		c-0.9-0.6-1.8-1.4-2.8-1.6c-2.1-0.2-4.2-0.1-6.3-0.1c-0.9,0-1.4,0.7-1.4,1.6C22.6,105.8,22.6,107,22.6,108.1 M54.5,108.1
		c0-1.1,0-2.3,0-3.4c0-1.1-0.6-1.6-1.7-1.7c-1.6,0-3.1,0.1-4.5,0c-1.8-0.2-3.1,0.6-4.4,1.8c-0.3,0.3-0.6,0.7-1,0.9
		c-1.4,1.1-1.4,3.7,0,4.8c0.4,0.3,0.7,0.8,1.1,1c0.9,0.6,1.8,1.4,2.8,1.6c2.1,0.2,4.2,0.1,6.3,0.1c0.9,0,1.4-0.7,1.4-1.6
		C54.5,110.4,54.5,109.3,54.5,108.1 M38.7,124.2c1.1,0,2.3,0,3.4,0s1.7-0.6,1.7-1.7c0-1.6-0.1-3.1,0-4.5c0.1-1.8-0.6-3-1.7-4.2
		c-0.3-0.4-0.8-0.8-1.1-1.1c-1-1.3-3.6-1.3-4.5,0c-0.3,0.4-0.9,0.8-1.2,1.2c-0.6,0.9-1.4,1.8-1.6,2.8c-0.2,2-0.1,4.1-0.1,6.2
		c0,0.9,0.6,1.4,1.4,1.4C36.3,124.2,37.4,124.2,38.7,124.2"/>
	<path fill="#6490A8" d="M73.8,78.8h51v1.1c0,9.7,0,19.2,0,28.8c0,2.4-1.1,3.6-3.6,3.6c-14.6,0-29.3,0-43.9,0
		c-2.3,0-3.4-1.2-3.4-3.6c0-9.7,0-19.3,0-29v-1H73.8z"/>
</g>
</svg>
