<?xml version="1.0" encoding="utf-8"?>
<!-- Generator: Adobe Illustrator 22.1.0, SVG Export Plug-In . SVG Version: 6.00 Build 0)  -->
<svg version="1.1" id="Layer_1" xmlns="http://www.w3.org/2000/svg" xmlns:xlink="http://www.w3.org/1999/xlink" x="0px" y="0px"
	 viewBox="0 0 146 146" style="enable-background:new 0 0 146 146;" xml:space="preserve">
<style type="text/css">
	.st0{clip-path:url(#SVGID_2_);}
	.st1{opacity:0.6;}
	.st2{fill:#26A7BB;}
	.st3{fill:#FFFFFF;}
</style>
<g>
	<defs>
		<rect id="SVGID_1_" y="0" width="146" height="146"/>
	</defs>
	<clipPath id="SVGID_2_">
		<use xlink:href="#SVGID_1_"  style="overflow:visible;"/>
	</clipPath>
	<g id="Symbol_2_5" class="st0">
		<g id="Gruppe_35" transform="translate(-3431 -1660)" class="st1">
			<g id="Gruppe_34" transform="translate(3327 576)">
				<circle id="Ellipse_1" class="st2" cx="177" cy="1157" r="73"/>
			</g>
		</g>
		<g id="Gruppe_38" transform="translate(-3110.741 -1728.993)">
			<g id="Gruppe_36" transform="translate(3159.938 1800.617)">
				<path id="Pfad_10" class="st3" d="M23.9,9.3L0,0.4v11.1h0c0.6,6.8,11.3,12.3,24.3,12.3S48,18.4,48.6,11.6h0V0L23.9,9.3z"/>
			</g>
			<g id="Gruppe_37" transform="translate(3136.741 1771.993)">
				<path id="Pfad_11" class="st3" d="M47.5,35.6l46.7-17.5L47.3,0L0,18l15.1,5.6v6.3c-0.9,0.6-1.1,1.8-0.5,2.6c0,0,0,0,0,0
					c0,0,0,0,0,0.1v4c0,0.5,0.2,1,0.7,1.3l-2.1,18.5h0c0,0.1,0,0.3,0,0.4c0.1,1.6,1.5,2.8,3.1,2.7c1.6,0.1,3-1.1,3.1-2.7
					c0-0.1,0-0.3,0-0.4h0l-2.3-18.5c0.4-0.3,0.7-0.8,0.7-1.3v-4c0,0,0,0,0-0.1c0.6-0.8,0.4-2-0.5-2.6c0,0,0,0,0,0v-5.5L47.5,35.6z"
					/>
			</g>
		</g>
	</g>
</g>
</svg>
