<?xml version="1.0" encoding="utf-8"?>
<!-- Generator: Adobe Illustrator 22.1.0, SVG Export Plug-In . SVG Version: 6.00 Build 0)  -->
<svg version="1.1" id="Capa_1" xmlns="http://www.w3.org/2000/svg" xmlns:xlink="http://www.w3.org/1999/xlink" x="0px" y="0px"
	 viewBox="0 0 512 512" style="enable-background:new 0 0 512 512;" xml:space="preserve">
<style type="text/css">
	.st0{fill:#E64C18;}
	.st1{fill:#F36518;}
	.st2{fill:#FFFFFF;}
</style>
<g>
	<path class="st0" d="M441.4,111.1L412.2,450c-43.3,33.6-97.7,53.6-156.8,53.6c-58.5,0-112.5-19.6-155.6-52.7L70.6,111.1H441.4z"/>
	<polygon class="st1" points="256,142.9 256,495.8 377.9,461.4 405.1,142.9 	"/>
	<polygon class="st2" points="140.4,187.1 152.3,328.7 311.2,328.7 306,387.2 256,400.7 203.9,386.1 202.6,349.7 154.1,349.7 
		160.2,421.5 256,448.6 351.8,421.5 363.7,280.9 196.4,280.9 192.2,235.1 192.2,235.1 367.7,234.1 371.6,187.1 	"/>
	<polygon points="150.6,8.4 150.6,32.7 127.4,32.7 127.4,8.4 105.8,8.4 105.8,78.1 127.4,78.1 127.4,55.4 150.6,55.4 150.6,78.1 
		172.2,78.1 172.2,8.4 	"/>
	<polygon points="249,8.4 182.5,8.4 182.5,32.7 204.1,32.7 204.1,78.7 227.4,78.7 227.4,32.7 249,32.7 	"/>
	<polygon points="372.7,56.5 372.7,8.9 349.5,8.9 349.5,56.5 349.5,78.7 372.7,78.7 406.2,78.7 406.2,56.5 	"/>
	<polygon points="314.4,8.9 298.2,33.8 281.9,8.9 258.7,8.9 258.7,78.7 281.9,78.7 281.9,44.1 298.2,68.9 314.4,44.1 314.4,78.7 
		337.6,78.7 337.6,8.9 	"/>
</g>
</svg>
