<?xml version="1.0" encoding="utf-8"?>
<!-- Generator: Adobe Illustrator 22.1.0, SVG Export Plug-In . SVG Version: 6.00 Build 0)  -->
<svg version="1.1" id="Capa_1" xmlns="http://www.w3.org/2000/svg" xmlns:xlink="http://www.w3.org/1999/xlink" x="0px" y="0px"
	 viewBox="0 0 512 512" style="enable-background:new 0 0 512 512;" xml:space="preserve">
<style type="text/css">
	.st0{fill:#ED8023;}
	.st1{fill:#F69F1C;}
	.st2{fill:#FFFFFF;}
	.st3{font-family:'Arial-BoldMT';}
	.st4{font-size:60.0553px;}
</style>
<g>
	<g>
		<g>
			<g>
				<path class="st0" d="M442,97.5l-29.2,338.9C369.5,470,315.1,490,256,490s-113.5-20-156.8-53.6L70,97.5H442z"/>
			</g>
			<g>
				<polygon class="st1" points="256,129.4 256,483.3 378.3,448.8 405.5,129.4 				"/>
			</g>
		</g>
	</g>
	<g>
		<polygon class="st2" points="238.7,173.6 238.7,436.1 130.5,395.6 130.5,332 168.5,344.3 168.5,363.1 199.9,372.5 191.9,173.6 		
			"/>
		<polygon class="st2" points="381.5,232.2 381.5,175.1 264.5,175.1 264.5,313.2 334.7,313.2 334.7,365.2 308,371 308,347.2 
			265.3,350.8 265.3,436.1 373.4,396.3 379.9,269.8 311.3,269.8 311.3,221.3 338.7,221.3 338.7,232.9 		"/>
	</g>
	<g>
		<text transform="matrix(1 0 0 1 70.3315 73.497)" class="st0 st3 st4">JAVASCRIPT</text>
	</g>
</g>
</svg>
