<?xml version="1.0" encoding="utf-8"?>
<!-- Generator: Adobe Illustrator 22.1.0, SVG Export Plug-In . SVG Version: 6.00 Build 0)  -->
<svg version="1.1" id="Capa_1" xmlns="http://www.w3.org/2000/svg" xmlns:xlink="http://www.w3.org/1999/xlink" x="0px" y="0px"
	 viewBox="0 0 512 512" style="enable-background:new 0 0 512 512;" xml:space="preserve">
<style type="text/css">
	.st0{fill:#DB380E;}
	.st1{fill:#73A1FB;}
</style>
<g>
	<g>
		<g>
			<path class="st0" d="M254.2,76.9c-17,11.9-36.2,25.5-46.5,47.8c-17.9,39,36.6,81.6,38.9,83.4c0.5,0.4,1.2,0.6,1.8,0.6
				c0.7,0,1.4-0.2,1.9-0.7c1.1-0.9,1.4-2.4,0.7-3.7c-0.2-0.4-19.8-38.4-19-65.6c0.3-9.5,13.5-20.3,27.6-31.7
				c12.9-10.4,27.5-22.3,36-36.1c18.8-30.5-2.1-60.5-2.3-60.8c-0.8-1.2-2.4-1.6-3.7-1c-1.3,0.6-2,2-1.7,3.4c0,0.2,4.1,20-7.2,40.4
				C276.2,61.4,266,68.6,254.2,76.9z"/>
			<path class="st0" d="M325.6,90.3c1.2-0.9,1.5-2.5,0.8-3.9c-0.7-1.3-2.3-1.9-3.7-1.4c-2.9,1.1-70.6,27.2-70.6,58.7
				c0,21.7,9.3,33.2,16.1,41.6c2.7,3.3,5,6.1,5.7,8.6c2.1,7-2.9,19.6-5,23.9c-0.6,1.2-0.3,2.7,0.7,3.6c0.6,0.5,1.3,0.7,2,0.7
				c0.6,0,1.2-0.2,1.7-0.5c1.2-0.8,28.4-20.1,23.5-43.3c-1.8-8.8-6.2-15.3-10-21c-5.9-8.8-10.2-15.2-3.7-27
				C290.8,116.6,325.3,90.6,325.6,90.3z"/>
		</g>
		<g>
			<path class="st1" d="M149.5,222.7c-1.2,3.5-0.6,6.9,1.6,10c7.3,10.2,33.3,15.8,73.2,15.8c0,0,0,0,0,0c5.4,0,11.1-0.1,16.9-0.3
				c63.7-2.3,87.4-22.1,88.3-23c1.1-0.9,1.3-2.5,0.7-3.7c-0.7-1.2-2.1-1.9-3.4-1.5c-22.4,6.1-64.3,8.3-93.4,8.3
				c-32.5,0-49.1-2.3-53.1-4.1c2.1-2.9,14.9-8,30.8-11.1c1.5-0.3,2.6-1.7,2.4-3.2s-1.4-2.7-3-2.7
				C201.1,207.2,154.4,207.9,149.5,222.7z"/>
			<path class="st1" d="M362.7,202.2c-13.1,0-25.6,6.6-26.1,6.9c-1.2,0.7-1.8,2-1.5,3.4c0.3,1.3,1.5,2.3,2.9,2.3
				c0.3,0,28,0.2,30.5,16.1c2.2,13.7-26.3,35.8-37.4,43.2c-1.2,0.8-1.7,2.3-1.1,3.7c0.5,1.1,1.6,1.8,2.8,1.8c0.2,0,0.4,0,0.6-0.1
				c2.6-0.6,64.8-14.3,58.2-50.5C387.6,206.9,373.7,202.2,362.7,202.2z"/>
			<path class="st1" d="M320.1,269.7c0.2-1.2-0.3-2.3-1.2-3l-14.9-10.4c-0.7-0.5-1.6-0.7-2.5-0.4c-0.2,0-15.7,4.1-38.4,6.7
				c-9,1-19,1.5-29.1,1.5c-22.6,0-37.4-2.7-39.6-4.6c-0.3-0.5-0.2-0.8-0.1-0.9c0.4-1.1,2.5-2.4,3.8-2.9c1.5-0.6,2.3-2.2,1.8-3.7
				c-0.5-1.5-2-2.4-3.6-2c-15,3.6-22.3,8.7-21.7,15c0.9,11.2,27,17,49,18.5c3.2,0.2,6.6,0.3,10.2,0.3c0,0,0,0,0,0
				c36.6,0,83.6-11.5,84-11.6C319,271.7,319.8,270.8,320.1,269.7z"/>
			<path class="st1" d="M207.7,293.8c1.1-0.7,1.6-2.1,1.2-3.4c-0.4-1.3-1.6-2.1-3-2.1c-2,0.1-19.6,0.8-20.8,12.1
				c-0.4,3.3,0.6,6.4,2.9,9.1c6.3,7.5,23.4,11.9,52.2,13.6c3.4,0.2,6.9,0.3,10.3,0.3c36.6,0,61.2-11.5,62.2-11.9
				c1-0.5,1.7-1.5,1.7-2.6c0.1-1.1-0.5-2.2-1.4-2.7l-18.8-11.5c-0.7-0.4-1.4-0.5-2.2-0.4c-0.1,0-12.1,2.5-30.1,5
				c-3.4,0.5-7.7,0.7-12.7,0.7c-18,0-38.1-2.9-41.9-4.9C207.1,294.7,207.1,294.2,207.7,293.8z"/>
			<path class="st1" d="M233.4,357.9c83.8-0.1,128.7-15,137.4-24.3c3.1-3.3,3.4-6.5,3.1-8.5c-0.6-5-5.2-8.1-5.8-8.5
				c-1.3-0.8-2.9-0.6-3.9,0.5c-1,1.1-1,2.8,0,3.9c0.5,0.7,0.8,1.8-0.7,3.4c-3.5,3.2-38.4,13.1-96.5,16c-8,0.4-16.3,0.6-24.8,0.6
				c-52.1,0-90.2-7.1-95.2-11.3c1.9-2.8,15.4-7.2,29.7-9.7c1.6-0.3,2.7-1.8,2.5-3.4c-0.3-1.6-1.7-2.7-3.4-2.5
				c-0.4,0.1-1.8,0.1-3.4,0.2c-23.7,1.4-51,4.7-52.4,16.8c-0.4,3.7,0.7,7.1,3.3,10C129.6,348.4,148,357.9,233.4,357.9
				C233.3,357.9,233.3,357.9,233.4,357.9z"/>
			<path class="st1" d="M387.2,336.2c-1.2-0.5-2.6-0.3-3.5,0.7c-0.1,0.1-12.7,13.3-50.6,21c-14.5,2.9-41.7,4.4-80.9,4.4
				c-39.2,0-76.6-1.5-77-1.6c-1.6-0.1-2.9,1.1-3.1,2.6c-0.2,1.5,0.8,3,2.3,3.3c0.4,0.1,39.5,9.3,93,9.3c25.7,0,50.6-2.1,74.2-6.2
				c44-7.7,47.1-29.5,47.2-30.5C389.1,338,388.4,336.8,387.2,336.2z"/>
		</g>
	</g>
	<g>
		<path class="st0" d="M149.8,374.1h-22.3c0.5,18.7,1,35.1,1,52.1c0,13-0.5,28.3-0.5,43.5c0,10.1-2.3,18.6-7,26.2
			c5.2,2.5,10.5,4.9,16,7.2c8-9.7,12.5-21.7,12.3-36.8c-0.3-12.3-0.3-28.3-0.3-40.1C149,408.6,149.3,391.3,149.8,374.1z"/>
		<path class="st0" d="M299.6,405.6l-13.5,40c-2.4,7.3-4.2,14.3-5.8,21.3h-1.5c-1.1-7.1-2.8-13.6-5.5-21.3l-4.4-12.8
			c-3.3-9.1-6-18.7-8.4-27.9l-22.4,2.8l31.2,80.9l16.1-1.6l19-49.2c3.7-9.6,8.6-21,13.2-31L299.6,405.6z"/>
		<path class="st0" d="M362.2,404.8c-9.1,0-19.5,2-33.3,9.6l3.6,12.7l1.3,0.8c8.9-6.5,16.9-9.6,23.1-9.6c8.3,0,14.5,5.5,14.5,14.3
			v7.1c-35.6,5.4-44.3,16.4-44.3,29.2c0,13.5,9.6,20.8,20.3,20.8c8.9,0,16.7-5.4,23.7-11.2l1.5,0.3c1.5,7.3,6.3,10.1,11.6,10.5
			c2.3-1.3,4.6-2.6,6.9-3.9v-55.3C391,413.1,380.7,404.8,362.2,404.8z M371.3,468.6c-5.8,5-10.7,7.6-15.1,7.6
			c-5.5,0-10.1-3.6-10.1-10.6c0-7.5,5-13,25.2-15.9L371.3,468.6L371.3,468.6z"/>
		<path class="st0" d="M200.3,404.8c-9.1,0-19.5,1.9-33.3,9.6l3.6,12.7l1.3,0.8c8.9-6.5,16.9-9.6,23.1-9.6c8.3,0,14.5,5.5,14.5,14.3
			v7.1c-35.6,5.4-44.3,16.4-44.3,29.2c0,13.5,9.6,20.8,20.3,20.8c8.9,0,16.7-5.4,23.7-11.2l1.5,0.3c1.6,8.3,7.6,10.7,13.8,10.6
			c1.5,0,3.1-0.2,4.7-0.5v-58.8C229,413.1,218.8,404.8,200.3,404.8z M209.4,468.6c-5.8,5-10.7,7.6-15.1,7.6
			c-5.5,0-10.1-3.6-10.1-10.6c0-7.5,5-13,25.2-15.9V468.6z"/>
	</g>
</g>
</svg>
