<?xml version="1.0" encoding="utf-8"?>
<!-- Generator: Adobe Illustrator 22.1.0, SVG Export Plug-In . SVG Version: 6.00 Build 0)  -->
<svg version="1.1" id="Layer_1" xmlns="http://www.w3.org/2000/svg" xmlns:xlink="http://www.w3.org/1999/xlink" x="0px" y="0px"
	 viewBox="0 0 198.4 198.4" enable-background="new 0 0 198.4 198.4" xml:space="preserve">
<g>
	<path fill="#6490A8" d="M2.1,100.5c0-0.4,0-0.9,0-1.3l0.1-0.1c0.2-2,1.3-3.6,2.9-4.7c1.1-0.8,2.1-1.5,3.2-2.3
		c0.8-0.5,1.4-1,2.2-1.5c8.1-5.4,16.6-10.2,25.5-14.3c6.4-3,13-5.5,19.8-7.4c4-1,7.9-1.8,12-1.9c3.5-0.1,7,0.2,10.3,1.9
		c0.3,0.1,0.4,0,0.5-0.2c2.9-3.4,6.1-6.4,9.8-8.9c5.6-4,11.6-6.9,18-9.6c11.9-4.7,24.2-7.7,36.7-10c3.1-0.5,5.8,0.9,7.1,3.6
		c0.5,1,1,2.1,1.5,3.1c0.1,0.1,0.1,0.2,0.2,0.4c2.5,4.9,5.1,9.9,7.6,14.8c3.3,6.5,6.7,13,10.1,19.3c2.1,4,4.2,8,6.4,12
		c3.6,6.8,7.4,13.6,11.1,20.3c2.7,5.1,5.5,10.1,8.2,15c2.2,3.8,0.7,8.2-3.5,9.9c-1.6,0.7-3.2,1.3-4.8,2
		c-10.8,4.3-21.5,8.6-32.2,12.8c-5.6,2.2-11.1,4.4-16.7,6.7c-0.2,0.1-0.5,0.3-0.7,0.7c-1.4,3.3-3.8,5.6-7,7.1
		c-5.1,2.4-10.4,3-16,2.4c-0.2,0-0.5,0-0.8,0.1c-5.8,2.6-11.7,5.3-17.6,7.9c-5.5,2.5-11,4.9-16.5,7.5c-6.9,3.2-13.8,6.3-20.9,9.3
		c-0.9,0.3-1.8,0.8-2.6,1c-1.2,0.3-2.5,0.1-3.7-0.3c-1.6-0.8-3-1.9-3.7-3.5c-3.5-7-7.1-13.9-10.7-21c-4.8-9.4-9.6-18.9-14.4-28.3
		c-5.6-11-11.2-22-16.7-32.9c-0.5-1.2-1.2-2.3-1.9-3.5c0-0.1,0-0.2-0.1-0.3C3.9,104.6,2.7,102.7,2.1,100.5 M145.3,44.7
		c-0.1,0-0.1,0-0.2,0c-5.6,1-11.2,2.3-16.7,3.7c-8.3,2.2-16.5,4.8-24.4,8.3c-5.2,2.3-10.2,4.9-14.8,8.3c-1.1,0.8-2.1,1.6-3.2,2.5
		c15.3,30,30.4,59.8,45.7,89.8c0.2-0.1,0.3-0.2,0.4-0.3c2.7-1.8,5.6-3.5,8.3-5.2c8.7-5.1,17.6-9.4,26.9-13.1
		c0.2-0.1,0.4-0.2,0.4-0.5c0.3-1.9,0.4-3.6,0.2-5.5c-0.3-4.4-1.9-8.5-4.6-12c-0.3-0.4-0.8-0.9-1.2-1.4h0.1c0.1,0,0.3,0.1,0.4,0.1
		c3,0.8,5.8,1.1,8.8,0.3c3.5-0.9,6-2.7,7.4-6.1c0.1-0.2,0.1-0.7,0-0.9c-4.9-10-9.9-20-14.7-30C158.8,72,153.3,61,148,50
		C147.1,48.4,146.2,46.6,145.3,44.7 M122.6,161.6c-0.1-0.2-0.2-0.4-0.3-0.7c-15-29-30.2-58-45.2-87c-0.7-1.3-0.7-1.2-2.1-1.4
		c-4.1-0.7-8.1-0.3-12.1,0.3c-4.8,0.9-9.6,2.3-14.3,4c-8,3-15.7,6.8-23.2,10.9c-1.3,0.8-2.7,1.5-4.1,2.3
		c16.3,30.6,32.6,61.2,48.9,91.8C86.7,172.7,103.8,165.1,122.6,161.6 M66,184.1c-16.3-30.6-32.5-61.2-48.9-91.8
		c-2,1.2-4,2.4-5.9,3.6l48.4,91.9C61.9,186.6,64,185.4,66,184.1 M177.9,135.4c3.5-1.1,7-2.1,10.5-3.1c-1.8-3.6-3.6-7.1-5.4-10.8
		C183.1,126.8,181.6,131.4,177.9,135.4"/>
	<path fill="#6490A8" d="M143.7,140.9c-4,2.4-7.9,4.8-11.9,7.2c-0.1-0.2-0.2-0.3-0.2-0.5c-11.4-25.8-22.8-51.6-34.3-77.5
		c-0.1-0.2-0.1-0.5,0-0.8c0.3-0.5,0.9-0.4,1.2,0c1.4,2.2,2.7,4.5,4.2,6.7c11.6,18.4,23.3,36.8,34.9,55.2c2,3.1,3.8,6.1,5.8,9.2
		C143.5,140.7,143.6,140.8,143.7,140.9"/>
	<path fill="#6490A8" d="M82.3,98c0.8,0,1.5,0,2.3,0c1.3,0,2.3,1,2.2,2.4c0,1.3-1,2.3-2.3,2.3c-11.1-0.1-21.3,3.2-31.1,8.3
		c-3.2,1.6-6.1,3.5-9.1,5.6c-1,0.8-2.2,1-3.4,0.7c-1.5-0.4-2-1.6-1-3c0.3-0.5,0.9-1,1.4-1.3c8.6-6,17.8-10.7,27.9-13.2
		C73.4,98.8,78.6,98,82.3,98"/>
	<path fill="#6490A8" d="M76.9,90.5c-9.9,0.3-19.1,3-28,7.4c-3.5,1.6-6.8,3.6-10.1,5.7c-0.7,0.4-1.4,0.7-2.2,0.7
		c-1.3-0.1-2.1-1.2-1.8-2.5c0.3-0.9,0.9-1.6,1.6-2.2c1.8-1.2,3.6-2.5,5.5-3.6c7.7-4.4,15.9-7.5,24.7-9c3.8-0.8,7.8-1.1,11.7-1.1
		c1.8,0,2.9,1.6,2.2,3.3c-0.3,0.9-1,1.3-2,1.4C78.1,90.6,77.6,90.5,76.9,90.5"/>
	<path fill="#6490A8" d="M46.9,126.5c0.1-1,0.7-1.9,1.8-2.5c2.4-1.5,4.7-3.1,7.2-4.5c6.8-3.8,14.1-6.6,21.7-8.3
		c4.2-0.9,8.3-1.4,12.5-1.4c1.4,0,2.3,0.8,2.4,2.1c0.1,1.2-0.5,2.2-1.6,2.5c-0.1,0-0.3,0.1-0.4,0.1c-11.2,0-21.5,3.3-31.3,8.7
		c-2.6,1.4-5.2,3.1-7.7,4.7c-0.8,0.4-1.5,0.9-2.4,0.9C47.7,128.8,46.8,128.1,46.9,126.5"/>
</g>
</svg>
