<?xml version="1.0" encoding="utf-8"?>
<!-- Generator: Adobe Illustrator 22.1.0, SVG Export Plug-In . SVG Version: 6.00 Build 0)  -->
<svg version="1.1" id="Capa_1" xmlns="http://www.w3.org/2000/svg" xmlns:xlink="http://www.w3.org/1999/xlink" x="0px" y="0px"
	 viewBox="0 0 512 512" style="enable-background:new 0 0 512 512;" xml:space="preserve">
<style type="text/css">
	.st0{fill:#8F9ED0;}
	.st1{fill:#F3F3F3;}
</style>
<g>
	<path class="st0" d="M507.4,256c0,15.2-1.4,30.1-3.9,44.5c-21,117.6-123.8,206.8-247.4,206.8c-93.1,0-174.4-50.7-217.9-125.9
		c-10.6-18.4-18.9-38.2-24.6-59.1C7.7,301.2,4.6,279,4.6,256C4.6,117.2,117.2,4.6,256,4.6c114.6,0,211.2,76.7,241.5,181.5
		C503.9,208.3,507.4,231.8,507.4,256z"/>
	<g>
		<path class="st1" d="M132.5,179.6H39.9L13.5,322.4c5.7,20.9,14,40.7,24.6,59.1h8.6l10.2-55.3h50.9c61.9,0,78.6-55.6,82.6-82.9
			C194.4,215.9,174.4,179.6,132.5,179.6z M145.9,247.9c-2.3,15.5-13.7,47-48.8,47H62.7l15.3-83.1h35
			C147.1,211.8,148.1,232.4,145.9,247.9z"/>
		<path class="st1" d="M497.5,186.1c-7.9-4.1-17.2-6.5-28.1-6.5h-92.6l-37.3,201.8h44.1l10.2-55.3h50.9c27.5,0,46.1-11,58.6-25.6
			c2.6-14.5,3.9-29.3,3.9-44.5C507.4,231.8,503.9,208.3,497.5,186.1z M482.9,247.9c-2.3,15.5-13.7,47-48.8,47h-34.3l15.3-83.1h35
			C484.1,211.8,485.1,232.4,482.9,247.9z"/>
		<path class="st1" d="M308.3,180.3c-18,0-41.9,0-53.6,0l10.1-54.4h-44l-37.3,201.8h44l21.4-116c7.9,0,18.4,0,28.1,0
			c18.6,0,31.3,4,28.6,21.3c-2.7,17.3-18,93.9-18,93.9h44.6c0,0,17.3-85.2,20-109.2C354.9,193.6,332.9,180.3,308.3,180.3z"/>
	</g>
</g>
</svg>
