<?xml version="1.0" encoding="utf-8"?>
<!-- Generator: Adobe Illustrator 22.1.0, SVG Export Plug-In . SVG Version: 6.00 Build 0)  -->
<svg version="1.1" id="Layer_1" xmlns="http://www.w3.org/2000/svg" xmlns:xlink="http://www.w3.org/1999/xlink" x="0px" y="0px"
	 viewBox="0 0 198.4 198.4" enable-background="new 0 0 198.4 198.4" xml:space="preserve">
<g>
	<path fill="#6490A8" d="M155.5,87.8c0.9,0.3,2,0.6,2.9,0.9c-2,8.5-7.3,16-14.6,20.7s-16.4,6.4-25,4.6c6.2,3.4,13.2,5.4,20.2,5.5
		c-21.9,9.6-44.6,17.6-67.7,23.7c0.5,4.8-3.6,8.9-7.7,11.4c-4.2,2.5-9,4.2-12,7.9c-3.7,4.5-4.2,11-8.4,14.9
		c-4.4,4.1-12,4.4-14.9,9.6c2.6-5.3,5.3-10.7,7.9-16.1c-4.7,5.5-8.5,11.8-11.1,18.5c2.4-7.1-0.4-15.5,2.8-22.3
		c1.5-3,3.9-5.3,6.3-7.6c7.6-7.3,15.4-14.7,23-22.1c1.5-1.4,2.9-2.8,4.8-3.3c1.9-0.5,4.3,0.1,5,2c14.4-20.4,27.9-41.7,40.2-63.7
		c1.3,4.8,2.6,9.6,3.9,14.3c-0.1-10,3.4-19.8,8.8-28.3c5.2-8.5,12.1-15.9,18.9-23.2c1.8,5.9,3.6,11.8,5.2,17.7
		c0.6-19.1,10.3-37.7,25.6-49.2c2.4,10.7,3.7,21.5,3.6,32.4c0,3.4-0.2,7.1-2,10.1c-1.9,3.2-7.2,5.6-7.6,9.5c3.2-1.1,6.4-2.4,9.6-3.6
		c-1,7.4-2.6,14.9-6.4,21.4c-3.8,6.5-9.9,12-17.2,13.3c0-1.7-2.5-2.5-3.6-1.3c-2.5,3.1,3.7,3.2,4.9,3.2 M162.2,36.5l-0.8-0.4
		c-1.5,2.7-2.9,5.4-4.4,8c-4.6,8-8.8,16.5-14,24.1c-11.8,17.1-27.2,31-42.3,44.9c-9.1,8.3-18.6,16.1-28,24c-0.6,0.5-1.4,1-2.1,1.5
		c0.2,0.2,0.4,0.4,0.6,0.6c0.7-0.5,1.5-0.9,2.2-1.6c9.8-7.8,19.6-15.7,29.4-23.5c19.5-15.8,36.3-34.1,48.3-56.2
		C154.9,51,158.5,43.7,162.2,36.5"/>
	<path fill="#6490A8" d="M75,185.3c11.7-2.9,23.4-6.5,35-9.1c4-0.8,7.9-1.7,12-2.4c14.1-2.5,28.3-2.7,42,2.6
		c1.4,0.5,2.7,1.1,4.1,1.8c1.3,0.6,2.5,1.4,3.8,2c-7.1-1.5-14.3-2.4-21.6-2.3c-13.3,0.1-26,3.1-38.8,6.3c-17.1,4.2-34,8.4-51.5,9.9
		c-9.9,1.4-19.9,0.3-29.6-3.2c0.6,0,1.1,0,1.8,0C46.6,191.7,60.9,188.9,75,185.3"/>
</g>
</svg>
