<?xml version="1.0" encoding="utf-8"?>
<!-- Generator: Adobe Illustrator 22.1.0, SVG Export Plug-In . SVG Version: 6.00 Build 0)  -->
<svg version="1.1" id="Layer_1" xmlns="http://www.w3.org/2000/svg" xmlns:xlink="http://www.w3.org/1999/xlink" x="0px" y="0px"
	 viewBox="0 0 198.4 198.4" enable-background="new 0 0 198.4 198.4" xml:space="preserve">
<g>
	<path fill="#6490A8" d="M48.4,147.5c11.3-5.6,22.7-11.3,34.3-17.2c-3.4-8.5-6.6-16.6-9.8-24.6c-0.7-1.8-2.2-2.3-4-2.5
		c-11.7-1.5-23.3-3-35-4.5c-2.3-0.3-4.6-0.6-6.8-1C20,96.2,15.5,90,16.4,83.2c0.9-7,6.8-11.8,14.1-11.2c5.7,0.5,11.3,1.3,16.9,1.9
		c11.3,1.5,22.5,3.1,33.9,4.3c5.8,0.7,9.8,3.2,12.4,8.6c12.8,27.1,25.9,54.1,38.7,81.3c0.6,1.1,0.9,2.4,1.6,4.6
		c-3.7-1-6.6-1.6-9.4-2.6c-9.2-3.8-18.1-7.8-27.2-11.6c-6.3-2.5-12.7-4.9-19.2-7.1c-7.8-2.6-15.9-3.3-24.1-3c-1.8,0.1-3.7,0-5.5,0
		C48.5,148,48.4,147.8,48.4,147.5"/>
	<path fill="#6490A8" d="M57.7,154.4c9.2-0.3,17.9,1.8,26.1,5.1c10.8,4.2,21.4,8.9,32,13.5c11.1,4.8,22.7,7.8,34.9,6.6
		c9.3-0.9,17.7-4.1,24.7-10.5c1.8-1.7,3.2-3.8,4.8-5.6c3.2-3.8,8.1-4.5,11.7-1.8c3.4,2.6,4.2,7.1,1.6,11.2
		c-6.1,9.3-14.6,15.3-24.8,19.2c-14,5.4-28.2,5.5-42.6,1.7c-10.9-2.9-21.1-7.6-31.2-12.4S74.5,172,63.1,171
		c-17.2-1.5-31.8,3.7-43.4,16.8c-0.9,1-1.6,2.2-2.6,3c-3.1,2.9-7.2,3.1-10.4,0.6c-3.2-2.4-4.3-6.5-2.2-10.2c1.4-2.4,3.2-4.7,5.1-6.8
		C22.7,161,39,154.8,57.7,154.4"/>
	<path fill="#6490A8" d="M153.9,153.6c-15.9-0.1-28.4-12.7-28.4-28.7s12.6-28.6,28.5-28.6c16,0,29,13,28.7,29.1
		C182.6,141.3,169.9,153.6,153.9,153.6"/>
</g>
</svg>
