<?xml version="1.0" encoding="utf-8"?>
<!-- Generator: Adobe Illustrator 22.1.0, SVG Export Plug-In . SVG Version: 6.00 Build 0)  -->
<svg version="1.1" id="Capa_1" xmlns="http://www.w3.org/2000/svg" xmlns:xlink="http://www.w3.org/1999/xlink" x="0px" y="0px"
	 viewBox="0 0 512 512" style="enable-background:new 0 0 512 512;" xml:space="preserve">
<style type="text/css">
	.st0{fill:#FFFFFF;}
	.st1{fill:#231F20;}
</style>
<g>
	<rect x="-54.7" y="-81.4" class="st0" width="612.2" height="678"/>
	<g>
		<g>
			<path class="st1" d="M418.1,174.6c0,93.9-76.1,170-170,170s-170-76.1-170-170s76.1-170,170-170C342,4.7,418.1,80.7,418.1,174.6z"
				/>
			<path class="st0" d="M322.5,67.5c-17.3,0.5-32.3,10.1-43.5,23.3c-12.4,14.5-20.7,31.5-26.6,49c-10.6-8.7-18.8-20.1-36-25
				c-13.2-3.8-27-2.2-39.8,7.2c-6,4.5-10.2,11.3-12.1,17.7c-5.2,16.6,5.3,31.5,10.2,36.8l10.5,11.2c2.2,2.2,7.4,7.9,4.8,16.1
				c-2.7,8.9-13.5,14.7-24.6,11.3c-4.9-1.5-12-5.2-10.4-10.4c0.7-2.2,2.2-3.7,3-5.5c0.7-1.6,1.1-2.7,1.4-3.4
				c2-6.5-0.7-15.1-7.8-17.3c-6.5-2-13.4-0.4-16,8.1c-3,9.7,1.6,27,26.3,34.7c28.9,8.9,53.4-6.8,56.8-27.4
				c2.2-12.8-3.7-22.4-14.2-34.7l-8.7-9.6c-5.2-5.2-7.1-14.2-1.6-21c4.6-5.7,11.1-8.3,21.8-5.3c15.6,4.2,22.5,15,34.1,23.7
				c-4.8,15.7-7.9,31.5-10.8,45.7l-1.8,10.5c-8.3,43.5-14.6,67.4-31.1,81.1c-3.3,2.3-8.1,5.9-15.1,6.1c-3.8,0.1-4.9-2.5-5-3.5
				c-0.1-2.6,2.2-3.8,3.5-5c2.2-1.2,5.6-3.1,5.3-9.6c-0.3-7.5-6.4-14.1-15.6-13.8c-6.8,0.3-17.1,6.5-16.6,18.3
				c0.4,12,11.6,21,28.5,20.5c9-0.3,29.2-4,49.1-27.6c23.2-27,29.6-58.1,34.5-80.8l5.5-30c3,0.4,6.3,0.5,9.7,0.7
				c28.8,0.5,43.3-14.3,43.4-25.1c0.1-6.5-4.4-13.1-10.5-12.8c-4.5,0.1-10.1,3.1-11.5,9.3c-1.4,6,9.1,11.5,1,16.8
				c-5.9,3.8-16.2,6.4-31,4.2l2.7-14.7c5.5-28,12.1-62.5,37.7-63.3c1.9-0.1,8.6,0.1,8.9,4.6c0,1.5-0.3,1.9-2,5.3
				c-1.8,2.7-2.5,4.9-2.3,7.6c0.3,7.1,5.7,11.9,13.5,11.6c10.5-0.4,13.5-10.6,13.4-15.8C352.8,74.9,339.7,67,322.5,67.5z"/>
		</g>
		<g>
			<g>
				<path class="st1" d="M311.1,415.5c17.2,0,28.7,12.4,28.7,29.6c0,16.2-11.7,29.6-28.7,29.6c-17.1,0-28.8-13.4-28.8-29.6
					C282.4,427.9,294,415.5,311.1,415.5z M311.1,466.2c12.1,0,17.6-11.1,17.6-21.1c0-10.8-6.5-21.1-17.6-21.1
					c-11.2,0-17.7,10.4-17.7,21.1C293.5,455.2,298.9,466.2,311.1,466.2z"/>
			</g>
			<path class="st1" d="M281,420.8v-4h-15v-5.3c0-7.6,1.1-13.4,10.1-13.4c0.1,0,0.4,0,0.5,0l0,0c2.5,0.1,4.5-1.9,4.6-4.4l0.1-3.4
				c-2-0.3-4.4-0.7-7-0.7c-15.4,0-19,9-19,22.7v4.5h-13.2v4.4c0.3,2.3,2.3,4.1,4.6,4.1l0,0h8.6v48h5.7l0,0c2.3,0,4.4-1.8,4.6-4.1
				v-43.9h10.4C278.9,425.1,280.9,423.1,281,420.8z"/>
			<path class="st1" d="M142.2,416.8L142.2,416.8c-2.2,0-4.4,1.5-5.3,3.5l-14.3,43.3h-0.3l-14.1-43.1c-1-2-3-3.5-5.3-3.5l0,0h-7.2
				l19.1,52.7c0.7,1.9,2,4.8,2,6c0,1.1-3.1,13.9-12.4,13.9c-0.3,0-0.4,0-0.7,0c-2.3-0.1-4.2,1.5-4.5,4.1l-0.3,3.5
				c1.9,0.3,3.8,0.8,7.1,0.8c13.8,0,17.9-12.6,21.7-23.3l20.9-57.7h-6.4V416.8z"/>
			<path class="st1" d="M76,428.3c-8.6-4.4-18-7.4-18.1-16.2c0-9.4,8.7-11.9,15.3-11.9c0,0,0,0,0.1,0c2.9,0,5.2,0.3,7.5,0.8l0,0
				c2.3,0.1,4.4-1.6,4.6-4.1l0.1-3.4c-4.4-1.1-8.9-1.6-12.8-1.6c-14.5,0.1-25.2,7.4-25.2,21.3c0,12.1,8.2,16.9,17.1,21.1
				c8.6,4.1,18.1,7.6,18.1,17.6c0,10.5-10.1,14.3-17.1,14.3c-4.1,0-8.5-1.1-12.1-2.2c-2.3-0.4-4.2,1.6-4.5,4.4l-0.3,3
				c5.2,1.6,10.4,3.1,15.7,3.1l0,0l0,0c16.2-0.1,28.8-6.5,28.9-23.3C93.1,438.1,84.9,432.8,76,428.3z"/>
			<path class="st1" d="M233.5,473.3C233.6,473.3,233.6,473.3,233.5,473.3c2.3,0,4.1-1.6,4.6-3.7v-32.5c0-12.3-5.2-21.6-19.6-21.6
				c-5,0-13.6,2.9-17.5,10.9c-3-7.6-9.6-10.9-16.1-10.9c-8.3,0-13.9,3-18,9.6h-0.3v-3.5c0-2.6-2.2-4.6-4.8-4.6l0,0h-5v56.5h5.6l0,0
				c2.6,0,4.8-2,4.8-4.8c0-0.1,0-0.1,0-0.1v-23.6c0-10.5,4.2-20.9,14.9-20.9c8.5,0,10.1,8.7,10.1,15.7v33.7h5.7l0,0
				c2.5,0,4.5-1.9,4.6-4.2v-24.2c0-10.5,4.2-20.9,14.9-20.9c8.5,0,10.1,8.7,10.1,15.7v33.7h6V473.3z"/>
			<path class="st1" d="M394.5,473.3L394.5,473.3c2.6,0,4.6-2,4.8-4.5v-29.1c0-15.1-6.5-24.3-21.1-24.3c-7.9,0-15.4,3.8-18.6,10.4
				h-0.3v-4.2l0,0c0-2.6-2-4.8-4.8-4.8l0,0h-5.3v56.5h5.7l0,0c2.5,0,4.5-1.9,4.6-4.4v-21.8c0-13.8,5.3-23.2,17.2-23.2
				c9.1,0.5,12,7,12,20.2v29.2H394.5z"/>
			<path class="st1" d="M450.6,416.8C450.5,416.8,450.5,416.8,450.6,416.8c-2.2,0-4.4,1.5-5.3,3.5l-14.3,43.1h-0.3l-14.1-43.1
				c-1-2-3-3.5-5.3-3.5l0,0h-7.2l19.1,52.7c0.7,1.9,2,4.8,2,6c0,1.1-3.1,13.9-12.4,13.9c-0.3,0-0.4,0-0.7,0
				c-2.3-0.1-4.2,1.5-4.5,4.1l-0.3,3.5c1.9,0.3,3.8,0.8,7.1,0.8c13.8,0,17.9-12.6,21.7-23.3l20.9-57.7L450.6,416.8L450.6,416.8z"/>
		</g>
	</g>
</g>
</svg>
