<svg xmlns="http://www.w3.org/2000/svg" xmlns:xlink="http://www.w3.org/1999/xlink" width="146" height="146" viewBox="0 0 146 146">
  <defs>
    <clipPath id="clip-path">
      <rect width="146" height="146" fill="none"/>
    </clipPath>
  </defs>
  <g id="Symbol_4_5" data-name="Symbol 4 – 5" clip-path="url(#clip-path)">
    <g id="Gruppe_49" data-name="Gruppe 49" transform="translate(-104 -1084)">
      <circle id="Ellipse_1" data-name="Ellipse 1" cx="73" cy="73" r="73" transform="translate(104 1084)" fill="#406f81"/>
    </g>
    <g id="Gruppe_55" data-name="Gruppe 55" transform="translate(-3516.014 -2367.962)">
      <path id="Differenzmenge_2" data-name="Differenzmenge 2" d="M17.539,35.108a17.828,17.828,0,0,1-2.16-.131V26.434A5.089,5.089,0,0,0,10.3,21.351H.385A17.645,17.645,0,0,1,0,18.566V16.513A17.566,17.566,0,0,1,16.513,0h2.053a17.569,17.569,0,0,1-1.026,35.108Zm0-29.062a1.216,1.216,0,0,0-1.215,1.215v12.43a.416.416,0,0,0,.029.132.252.252,0,0,0,.014.1.266.266,0,0,0,.03.1c.014.044.029.088.044.131a.014.014,0,0,1,.014.015l.005.01a1.7,1.7,0,0,0,.082.151v.014a1.6,1.6,0,0,0,.132.161l.029.029.015.015a.825.825,0,0,1,.066.051.831.831,0,0,0,.066.052.083.083,0,0,0,.021.014.073.073,0,0,1,.023.016,1.052,1.052,0,0,0,.176.1.052.052,0,0,1,.022.008.052.052,0,0,0,.022.008c.035.011.078.022.124.034l.037.01a.114.114,0,0,1,.029.007.114.114,0,0,0,.029.007,1.063,1.063,0,0,1,.109.008,1.066,1.066,0,0,0,.11.008H17.6c.038-.008.072-.012.106-.015s.064-.007.1-.014a.11.11,0,0,0,.029-.008.111.111,0,0,1,.029-.008.8.8,0,0,0,.176-.058.014.014,0,0,1,.014-.014l6.735-3.177a1.2,1.2,0,0,0,.586-1.61,1.2,1.2,0,0,0-1.093-.705,1.168,1.168,0,0,0-.517.12l-5.007,2.357V7.261A1.216,1.216,0,0,0,17.539,6.046Z" transform="translate(3603.237 2402.962)" fill="#fff"/>
      <g id="Gruppe_54" data-name="Gruppe 54" transform="translate(3548.014 2413.656)">
        <path id="Pfad_2" data-name="Pfad 2" d="M9.514,34.468H24.768V-16.37H9.514Z" transform="translate(16.756 29.838)" fill="#fff"/>
        <path id="Pfad_3" data-name="Pfad 3" d="M12.17,0H-3.935V50.838H12.17a5.1,5.1,0,0,0,5.083-5.083V5.083A5.1,5.1,0,0,0,12.17,0" transform="translate(50.54 13.466)" fill="#fff"/>
        <path id="Pfad_4" data-name="Pfad 4" d="M3.841,0A5.1,5.1,0,0,0-1.242,5.083V45.754a5.1,5.1,0,0,0,5.083,5.083H19.947V0Z" transform="translate(1.242 13.466)" fill="#fff"/>
        <path id="Pfad_5" data-name="Pfad 5" d="M19.207,10.176H14.123V4.712c0-.847-2.677-2.914-7.625-2.914S-1.131,3.864-1.131,4.712v5.464H-6.21V4.712c0-4.559,5.46-8,12.708-8s12.708,3.442,12.708,8Z" transform="translate(27.399 3.29)" fill="#fff"/>
      </g>
    </g>
  </g>
</svg>
