<?xml version="1.0" encoding="utf-8"?>
<!-- Generator: Adobe Illustrator 22.1.0, SVG Export Plug-In . SVG Version: 6.00 Build 0)  -->
<svg version="1.1" id="Layer_1" xmlns="http://www.w3.org/2000/svg" xmlns:xlink="http://www.w3.org/1999/xlink" x="0px" y="0px"
	 viewBox="0 0 300.5 309" enable-background="new 0 0 300.5 309" xml:space="preserve">
<text transform="matrix(1 0 0 1 37.7042 276.3688)" fill="#FFFFFF" font-family="'NordicaHairline'" font-size="18px">KOMMUNIKATIONSDESIGN</text>
<line fill="none" stroke="#FFFFFF" stroke-miterlimit="10" x1="38.8" y1="282.4" x2="262.7" y2="282.4"/>
<line fill="none" stroke="#FFFFFF" stroke-miterlimit="10" x1="38.8" y1="256.9" x2="262.7" y2="256.9"/>
<text transform="matrix(1 0 0 1 59.7826 247.2708)" fill="#FFFFFF" font-family="'Literal-Regular'" font-size="21px">ISABELLA AIGNER</text>
<g>
	<circle fill="#FFFFFF" cx="142.1" cy="115.3" r="87"/>
	<g opacity="0.5">
		<path fill="#808285" d="M37,162.1c8.6-0.7,132.5-51.3,158.2-87.3l11.9-8.3c2.6,2,4.6,7.6,0,21.6s-23.1,45-33.6,49.6
			c-10.5,4.6-28.9,12.5-50,9.2c0,0,29.6-5.3,46.7-21.1s29-33.9,30.3-37.7c1.3-3.8-87,68-130.5,74C26.4,168,37,162.1,37,162.1z"/>
		<path fill="#808285" d="M209.8,94.9l-21.2,52.1c0,0,4.6,4.6,18.5,0s62.6-39.2,62.6-39.2s-17.1,5.6-21.1,7.9
			c-4,2.3-51.4,35.9-49.4,26.7c2-9.2,19.8-54.2,19.8-54.2L209.8,94.9z"/>
	</g>
	<path d="M33,160.1c8.6-0.7,132.5-51.3,158.2-87.3l11.9-8.3c2.6,2,4.6,7.6,0,21.6s-23.1,45-33.6,49.6c-10.5,4.6-28.9,12.5-50,9.2
		c0,0,29.6-5.3,46.7-21.1s29-33.9,30.3-37.7c1.3-3.8-87,68-130.5,74C22.4,166,33,160.1,33,160.1z"/>
	<path d="M205.8,92.9l-21.2,52.1c0,0,4.6,4.6,18.5,0s62.6-39.2,62.6-39.2s-17.1,5.6-21.1,7.9c-4,2.3-51.4,35.9-49.4,26.7
		c2-9.2,19.8-54.2,19.8-54.2L205.8,92.9z"/>
</g>
</svg>
