<?xml version="1.0" encoding="utf-8"?>
<!-- Generator: Adobe Illustrator 22.1.0, SVG Export Plug-In . SVG Version: 6.00 Build 0)  -->
<svg version="1.1" id="Layer_1" xmlns="http://www.w3.org/2000/svg" xmlns:xlink="http://www.w3.org/1999/xlink" x="0px" y="0px"
	 viewBox="0 0 252.8 187.4" style="enable-background:new 0 0 252.8 187.4;" xml:space="preserve">
<style type="text/css">
	.st0{opacity:0.5;}
	.st1{fill:#808285;}
	.st2{fill:#FFFFFF;}
</style>
<circle cx="117.8" cy="93.7" r="87"/>
<g class="st0">
	<path class="st1" d="M12.6,140.5c8.6-0.7,132.5-51.3,158.2-87.3l11.9-8.3c2.6,2,4.6,7.6,0,21.6s-23.1,45-33.6,49.6
		c-10.5,4.6-28.9,12.5-50,9.2c0,0,29.6-5.3,46.7-21.1s29-33.9,30.3-37.7c1.3-3.8-87,68-130.5,74C2.1,146.4,12.6,140.5,12.6,140.5z"
		/>
	<path class="st1" d="M185.4,73.2l-21.2,52.1c0,0,4.6,4.6,18.5,0c13.8-4.6,62.6-39.2,62.6-39.2s-17.1,5.6-21.1,7.9
		s-51.4,35.9-49.4,26.7s19.8-54.2,19.8-54.2L185.4,73.2z"/>
</g>
<path class="st2" d="M8.6,138.5c8.6-0.7,132.5-51.3,158.2-87.3l11.9-8.3c2.6,2,4.6,7.6,0,21.6s-23.1,45-33.6,49.6
	c-10.5,4.6-28.9,12.5-50,9.2c0,0,29.6-5.3,46.7-21.1s29-33.9,30.3-37.7s-87,68-130.5,74C-1.9,144.4,8.6,138.5,8.6,138.5z"/>
<path class="st2" d="M181.4,71.2l-21.2,52.1c0,0,4.6,4.6,18.5,0c13.8-4.6,62.6-39.2,62.6-39.2s-17.1,5.6-21.1,7.9
	s-51.4,35.9-49.4,26.7s19.8-54.2,19.8-54.2L181.4,71.2z"/>
</svg>
